<svg width="48" height="48" viewBox="0 0 48 48" fill="none" xmlns="http://www.w3.org/2000/svg">
<g clip-path="url(#clip0_15_2)">
<mask id="mask0_15_2" style="mask-type:luminance" maskUnits="userSpaceOnUse" x="0" y="0" width="48" height="48">
<path d="M48 0H0V48H48V0Z" fill="white"/>
</mask>
<g mask="url(#mask0_15_2)">
<path d="M3.40626 9.46875C2.67521 11.6314 1.65174 16.7241 3.40626 19.7944C5.16076 22.8646 8.58448 25.3988 10.077 26.2822C9.37641 24.5765 7.56752 20.5324 7.64063 18.0469C7.71373 15.5614 9.43734 13.0629 10.077 12.1187C9.98569 14.4945 8.4375 18.3281 11.9531 21.3281C13.6343 22.7628 16.4063 22.7813 16.9688 22.5469C15.9331 21.3894 12.8103 20.1094 13.3667 17.3272C13.6592 15.8651 14.8288 14.4031 15.3771 13.8548C15.2858 15.1037 15.6027 17.6071 16.7478 18.6979C18.3281 20.2031 19.2188 20.0625 19.7633 19.7944C18.9844 19.1719 18.1002 17.9668 18.0272 16.1392C17.9358 13.8548 25.1548 12.6669 29.998 16.1392C34.8412 19.6116 35.6636 22.7184 35.024 25.3684C34.5122 27.4883 29.1451 25.7034 26.5255 24.546C26.5865 25.3379 27.7031 27.5156 29.998 28.0183C33.3853 28.7602 27.6122 30.5289 24.241 28.0183C23.0625 27.1406 22.3242 25.8912 22.1719 25.3125C21.3494 26.9269 21.2813 29.9063 24.241 31.4531C26.4666 32.6163 28.0781 32.7656 28.6875 32.6719C26.5781 34.4063 22.9792 34.2833 19.7633 32.4958C18.1406 31.5938 17.9062 29.8125 18.0272 29.1148C17.2961 29.8763 16.4919 32.1303 19.1237 35.0543C22.4134 38.7094 29.3584 39.7146 34.2929 36.5164C39.2274 33.3182 44.8017 26.2822 48 26.2822" stroke="white" stroke-linecap="round"/>
<path d="M27.375 19.3594C27.375 18.971 27.0602 18.6562 26.6719 18.6562C26.2835 18.6562 25.9688 18.971 25.9688 19.3594C25.9688 19.7477 26.2835 20.0625 26.6719 20.0625C27.0602 20.0625 27.375 19.7477 27.375 19.3594Z" fill="white"/>
</g>
</g>
<defs>
<clipPath id="clip0_15_2">
<rect width="48" height="48" fill="white"/>
</clipPath>
</defs>
</svg>
