<svg width="48" height="48" viewBox="0 0 48 48" fill="none" xmlns="http://www.w3.org/2000/svg">
<g clip-path="url(#clip0_123_4297)">
<mask id="mask0_123_4297" style="mask-type:luminance" maskUnits="userSpaceOnUse" x="0" y="0" width="48" height="48">
<path d="M48 0H0V48H48V0Z" fill="white"/>
</mask>
<g mask="url(#mask0_123_4297)">
<path d="M48 0H0V48H48V0Z" fill="black"/>
<path d="M1.02058 8C0.25043 10.2396 -0.827793 15.5136 1.02058 18.6932C2.86895 21.8727 6.47583 24.4972 8.0482 25.4119C7.31012 23.6455 5.40446 19.4575 5.48148 16.8835C5.5585 14.3095 7.37432 11.7221 8.0482 10.7443C7.952 13.2047 6.32099 17.1748 10.0247 20.2816C11.7959 21.7673 14.716 21.7864 15.3086 21.5437C14.2176 20.3451 10.9277 19.0194 11.5139 16.1382C11.822 14.6241 13.0542 13.11 13.6318 12.5422C13.5356 13.8355 13.8695 16.4281 15.0759 17.5577C16.7407 19.1165 17.679 18.9709 18.2527 18.6932C17.4321 18.0485 16.5006 16.8006 16.4237 14.908C16.3274 12.5422 23.9326 11.312 29.035 14.908C34.1372 18.5039 35.0037 21.7214 34.3298 24.4656C33.7906 26.6611 28.1364 24.8126 25.3767 23.614C25.4409 24.4341 26.6173 26.6893 29.035 27.2099C32.6035 27.9783 26.5215 29.8099 22.97 27.2099C21.7284 26.301 20.9506 25.0071 20.7901 24.4078C19.9237 26.0796 19.8519 29.1651 22.97 30.767C25.3146 31.9716 27.0123 32.1262 27.6543 32.0291C25.4321 33.8253 21.6406 33.698 18.2527 31.8468C16.5432 30.9126 16.2963 29.068 16.4237 28.3454C15.6535 29.1341 14.8063 31.4683 17.5789 34.4964C21.0445 38.2816 28.3611 39.3225 33.5596 36.0105C38.7581 32.6985 44.6306 25.4119 48 25.4119" stroke="white" stroke-linecap="round"/>
<path d="M26 18.5C26 18.2239 25.7761 18 25.5 18C25.2239 18 25 18.2239 25 18.5C25 18.7761 25.2239 19 25.5 19C25.7761 19 26 18.7761 26 18.5Z" fill="white"/>
</g>
<mask id="path-5-outside-1_123_4297" maskUnits="userSpaceOnUse" x="23" y="32" width="24" height="14" fill="black">
<rect fill="white" x="23" y="32" width="24" height="14"/>
<path d="M27.216 42.144C26.96 42.144 26.716 42.128 26.484 42.096C26.26 42.064 26.02 42.028 25.764 41.988C25.516 41.948 25.228 41.92 24.9 41.904V33.924C24.9 33.844 24.94 33.804 25.02 33.804H25.8C25.88 33.804 25.92 33.844 25.92 33.924V41.124C26.104 41.156 26.3 41.184 26.508 41.208C26.724 41.232 26.912 41.244 27.072 41.244C27.616 41.244 28.012 41.108 28.26 40.836C28.516 40.564 28.644 40.156 28.644 39.612V38.292C28.644 37.812 28.56 37.46 28.392 37.236C28.232 37.012 27.988 36.9 27.66 36.9C27.38 36.9 27.096 36.984 26.808 37.152C26.52 37.312 26.148 37.596 25.692 38.004L25.74 37.008C26.116 36.656 26.472 36.4 26.808 36.24C27.152 36.08 27.508 36 27.876 36C28.46 36 28.904 36.184 29.208 36.552C29.512 36.92 29.664 37.48 29.664 38.232V39.708C29.664 40.508 29.46 41.116 29.052 41.532C28.652 41.94 28.04 42.144 27.216 42.144ZM31.4536 42C31.3736 42 31.3336 41.96 31.3336 41.88V33.924C31.3336 33.844 31.3736 33.804 31.4536 33.804H32.2336C32.3136 33.804 32.3536 33.844 32.3536 33.924V41.88C32.3536 41.96 32.3136 42 32.2336 42H31.4536ZM36.4738 42.144C35.6658 42.144 35.0498 41.948 34.6258 41.556C34.2098 41.164 34.0018 40.568 34.0018 39.768V38.376C34.0018 37.576 34.2098 36.98 34.6258 36.588C35.0418 36.196 35.6578 36 36.4738 36C37.2818 36 37.8938 36.196 38.3098 36.588C38.7338 36.98 38.9458 37.576 38.9458 38.376V39.768C38.9458 40.568 38.7378 41.164 38.3218 41.556C37.9058 41.948 37.2898 42.144 36.4738 42.144ZM36.4738 41.244C36.9858 41.244 37.3538 41.116 37.5778 40.86C37.8098 40.596 37.9258 40.2 37.9258 39.672V38.472C37.9258 37.944 37.8098 37.552 37.5778 37.296C37.3538 37.032 36.9858 36.9 36.4738 36.9C35.9618 36.9 35.5898 37.032 35.3578 37.296C35.1338 37.552 35.0218 37.944 35.0218 38.472V39.672C35.0218 40.2 35.1338 40.596 35.3578 40.86C35.5898 41.116 35.9618 41.244 36.4738 41.244ZM42.7514 44.364C41.8154 44.364 41.1394 44.236 40.7234 43.98C40.3154 43.732 40.1114 43.352 40.1114 42.84C40.1114 42.512 40.1874 42.228 40.3394 41.988C40.4994 41.74 40.7394 41.54 41.0594 41.388L41.8634 41.712C41.6234 41.784 41.4474 41.9 41.3354 42.06C41.2234 42.228 41.1674 42.424 41.1674 42.648C41.1674 42.968 41.2874 43.188 41.5274 43.308C41.7674 43.436 42.1914 43.5 42.7994 43.5C43.4314 43.5 43.8674 43.436 44.1074 43.308C44.3554 43.18 44.4794 42.944 44.4794 42.6C44.4794 42.368 44.4234 42.196 44.3114 42.084C44.1994 41.972 44.0154 41.912 43.7594 41.904L41.5394 41.784C41.2914 41.768 41.0634 41.676 40.8554 41.508C40.6554 41.332 40.5554 41.06 40.5554 40.692C40.5554 40.524 40.5794 40.376 40.6274 40.248C40.6834 40.112 40.7674 39.984 40.8794 39.864C40.9994 39.744 41.1554 39.612 41.3474 39.468L41.9954 39.852C41.8194 39.924 41.6914 40.012 41.6114 40.116C41.5314 40.22 41.4914 40.34 41.4914 40.476C41.4914 40.62 41.5394 40.724 41.6354 40.788C41.7314 40.844 41.8794 40.88 42.0794 40.896L44.0714 41.016C44.5434 41.048 44.8954 41.2 45.1274 41.472C45.3674 41.736 45.4874 42.128 45.4874 42.648C45.4874 43.256 45.2674 43.692 44.8274 43.956C44.3954 44.228 43.7034 44.364 42.7514 44.364ZM42.8474 40.104C42.0954 40.104 41.5394 39.936 41.1794 39.6C40.8194 39.264 40.6394 38.748 40.6394 38.052C40.6394 37.356 40.8194 36.84 41.1794 36.504C41.5474 36.168 42.1154 36 42.8834 36C43.6194 36 44.1634 36.172 44.5154 36.516C44.8754 36.852 45.0554 37.368 45.0554 38.064C45.0554 38.76 44.8754 39.276 44.5154 39.612C44.1634 39.94 43.6074 40.104 42.8474 40.104ZM42.8474 39.216C43.2954 39.216 43.6034 39.132 43.7714 38.964C43.9474 38.788 44.0354 38.488 44.0354 38.064C44.0354 37.632 43.9474 37.328 43.7714 37.152C43.5954 36.976 43.2874 36.888 42.8474 36.888C42.4074 36.888 42.0994 36.976 41.9234 37.152C41.7474 37.328 41.6594 37.632 41.6594 38.064C41.6594 38.488 41.7474 38.788 41.9234 38.964C42.0994 39.132 42.4074 39.216 42.8474 39.216ZM44.3114 36.672L43.4714 36.312C43.5114 35.936 43.5514 35.624 43.5914 35.376C43.6394 35.12 43.6834 34.904 43.7234 34.728C43.7474 34.632 43.7954 34.584 43.8674 34.584H44.6234C44.7114 34.584 44.7434 34.624 44.7194 34.704C44.6394 34.952 44.5714 35.216 44.5154 35.496C44.4594 35.776 44.3914 36.168 44.3114 36.672Z"/>
</mask>
<path d="M27.216 42.144C26.96 42.144 26.716 42.128 26.484 42.096C26.26 42.064 26.02 42.028 25.764 41.988C25.516 41.948 25.228 41.92 24.9 41.904V33.924C24.9 33.844 24.94 33.804 25.02 33.804H25.8C25.88 33.804 25.92 33.844 25.92 33.924V41.124C26.104 41.156 26.3 41.184 26.508 41.208C26.724 41.232 26.912 41.244 27.072 41.244C27.616 41.244 28.012 41.108 28.26 40.836C28.516 40.564 28.644 40.156 28.644 39.612V38.292C28.644 37.812 28.56 37.46 28.392 37.236C28.232 37.012 27.988 36.9 27.66 36.9C27.38 36.9 27.096 36.984 26.808 37.152C26.52 37.312 26.148 37.596 25.692 38.004L25.74 37.008C26.116 36.656 26.472 36.4 26.808 36.24C27.152 36.08 27.508 36 27.876 36C28.46 36 28.904 36.184 29.208 36.552C29.512 36.92 29.664 37.48 29.664 38.232V39.708C29.664 40.508 29.46 41.116 29.052 41.532C28.652 41.94 28.04 42.144 27.216 42.144ZM31.4536 42C31.3736 42 31.3336 41.96 31.3336 41.88V33.924C31.3336 33.844 31.3736 33.804 31.4536 33.804H32.2336C32.3136 33.804 32.3536 33.844 32.3536 33.924V41.88C32.3536 41.96 32.3136 42 32.2336 42H31.4536ZM36.4738 42.144C35.6658 42.144 35.0498 41.948 34.6258 41.556C34.2098 41.164 34.0018 40.568 34.0018 39.768V38.376C34.0018 37.576 34.2098 36.98 34.6258 36.588C35.0418 36.196 35.6578 36 36.4738 36C37.2818 36 37.8938 36.196 38.3098 36.588C38.7338 36.98 38.9458 37.576 38.9458 38.376V39.768C38.9458 40.568 38.7378 41.164 38.3218 41.556C37.9058 41.948 37.2898 42.144 36.4738 42.144ZM36.4738 41.244C36.9858 41.244 37.3538 41.116 37.5778 40.86C37.8098 40.596 37.9258 40.2 37.9258 39.672V38.472C37.9258 37.944 37.8098 37.552 37.5778 37.296C37.3538 37.032 36.9858 36.9 36.4738 36.9C35.9618 36.9 35.5898 37.032 35.3578 37.296C35.1338 37.552 35.0218 37.944 35.0218 38.472V39.672C35.0218 40.2 35.1338 40.596 35.3578 40.86C35.5898 41.116 35.9618 41.244 36.4738 41.244ZM42.7514 44.364C41.8154 44.364 41.1394 44.236 40.7234 43.98C40.3154 43.732 40.1114 43.352 40.1114 42.84C40.1114 42.512 40.1874 42.228 40.3394 41.988C40.4994 41.74 40.7394 41.54 41.0594 41.388L41.8634 41.712C41.6234 41.784 41.4474 41.9 41.3354 42.06C41.2234 42.228 41.1674 42.424 41.1674 42.648C41.1674 42.968 41.2874 43.188 41.5274 43.308C41.7674 43.436 42.1914 43.5 42.7994 43.5C43.4314 43.5 43.8674 43.436 44.1074 43.308C44.3554 43.18 44.4794 42.944 44.4794 42.6C44.4794 42.368 44.4234 42.196 44.3114 42.084C44.1994 41.972 44.0154 41.912 43.7594 41.904L41.5394 41.784C41.2914 41.768 41.0634 41.676 40.8554 41.508C40.6554 41.332 40.5554 41.06 40.5554 40.692C40.5554 40.524 40.5794 40.376 40.6274 40.248C40.6834 40.112 40.7674 39.984 40.8794 39.864C40.9994 39.744 41.1554 39.612 41.3474 39.468L41.9954 39.852C41.8194 39.924 41.6914 40.012 41.6114 40.116C41.5314 40.22 41.4914 40.34 41.4914 40.476C41.4914 40.62 41.5394 40.724 41.6354 40.788C41.7314 40.844 41.8794 40.88 42.0794 40.896L44.0714 41.016C44.5434 41.048 44.8954 41.2 45.1274 41.472C45.3674 41.736 45.4874 42.128 45.4874 42.648C45.4874 43.256 45.2674 43.692 44.8274 43.956C44.3954 44.228 43.7034 44.364 42.7514 44.364ZM42.8474 40.104C42.0954 40.104 41.5394 39.936 41.1794 39.6C40.8194 39.264 40.6394 38.748 40.6394 38.052C40.6394 37.356 40.8194 36.84 41.1794 36.504C41.5474 36.168 42.1154 36 42.8834 36C43.6194 36 44.1634 36.172 44.5154 36.516C44.8754 36.852 45.0554 37.368 45.0554 38.064C45.0554 38.76 44.8754 39.276 44.5154 39.612C44.1634 39.94 43.6074 40.104 42.8474 40.104ZM42.8474 39.216C43.2954 39.216 43.6034 39.132 43.7714 38.964C43.9474 38.788 44.0354 38.488 44.0354 38.064C44.0354 37.632 43.9474 37.328 43.7714 37.152C43.5954 36.976 43.2874 36.888 42.8474 36.888C42.4074 36.888 42.0994 36.976 41.9234 37.152C41.7474 37.328 41.6594 37.632 41.6594 38.064C41.6594 38.488 41.7474 38.788 41.9234 38.964C42.0994 39.132 42.4074 39.216 42.8474 39.216ZM44.3114 36.672L43.4714 36.312C43.5114 35.936 43.5514 35.624 43.5914 35.376C43.6394 35.12 43.6834 34.904 43.7234 34.728C43.7474 34.632 43.7954 34.584 43.8674 34.584H44.6234C44.7114 34.584 44.7434 34.624 44.7194 34.704C44.6394 34.952 44.5714 35.216 44.5154 35.496C44.4594 35.776 44.3914 36.168 44.3114 36.672Z" fill="white"/>
<path d="M26.484 42.096L26.3426 43.086L26.3474 43.0866L26.484 42.096ZM25.764 41.988L25.6048 42.9753L25.6096 42.976L25.764 41.988ZM24.9 41.904H23.9V42.8564L24.8513 42.9028L24.9 41.904ZM25.92 41.124H24.92V41.9651L25.7487 42.1092L25.92 41.124ZM26.508 41.208L26.3934 42.2014L26.3976 42.2019L26.508 41.208ZM28.26 40.836L27.5318 40.1506L27.5264 40.1564L27.521 40.1622L28.26 40.836ZM28.392 37.236L27.5783 37.8172L27.585 37.8267L27.592 37.836L28.392 37.236ZM26.808 37.152L27.2936 38.0262L27.3028 38.0211L27.3119 38.0158L26.808 37.152ZM25.692 38.004L24.6932 37.9559L24.5781 40.3425L26.3588 38.7492L25.692 38.004ZM25.74 37.008L25.0566 36.278L24.7607 36.555L24.7412 36.9599L25.74 37.008ZM26.808 36.24L26.3863 35.3332L26.3781 35.3371L26.808 36.24ZM29.208 36.552L28.437 37.1889L28.437 37.1889L29.208 36.552ZM29.052 41.532L28.3381 40.8318L28.3379 40.8319L29.052 41.532ZM27.216 41.144C27.0015 41.144 26.8034 41.1306 26.6206 41.1054L26.3474 43.0866C26.6286 43.1254 26.9185 43.144 27.216 43.144V41.144ZM26.6254 41.1061C26.4063 41.0747 26.1707 41.0394 25.9184 41L25.6096 42.976C25.8693 43.0166 26.1137 43.0533 26.3426 43.0859L26.6254 41.1061ZM25.9232 41.0008C25.6295 40.9534 25.3032 40.9225 24.9487 40.9052L24.8513 42.9028C25.1528 42.9175 25.4025 42.9426 25.6048 42.9752L25.9232 41.0008ZM25.9 41.904V33.924H23.9V41.904H25.9ZM25.9 33.924C25.9 34.0381 25.8708 34.3074 25.6371 34.5411C25.4034 34.7748 25.1341 34.804 25.02 34.804V32.804C24.8259 32.804 24.4966 32.8532 24.2229 33.1269C23.9492 33.4006 23.9 33.7299 23.9 33.924H25.9ZM25.02 34.804H25.8V32.804H25.02V34.804ZM25.8 34.804C25.6859 34.804 25.4166 34.7748 25.1829 34.5411C24.9492 34.3074 24.92 34.0381 24.92 33.924H26.92C26.92 33.7299 26.8708 33.4006 26.5971 33.1269C26.3234 32.8532 25.9941 32.804 25.8 32.804V34.804ZM24.92 33.924V41.124H26.92V33.924H24.92ZM25.7487 42.1092C25.9536 42.1448 26.1686 42.1755 26.3934 42.2014L26.6226 40.2146C26.4314 40.1925 26.2544 40.1672 26.0913 40.1388L25.7487 42.1092ZM26.3976 42.2019C26.6382 42.2286 26.8647 42.244 27.072 42.244V40.244C26.9593 40.244 26.8098 40.2354 26.6184 40.2141L26.3976 42.2019ZM27.072 42.244C27.7617 42.244 28.4862 42.0722 28.999 41.5098L27.521 40.1622C27.5208 40.1625 27.5203 40.1631 27.5191 40.1641C27.5179 40.1651 27.5154 40.167 27.5111 40.1698C27.5026 40.1751 27.4845 40.1851 27.4522 40.1962C27.3847 40.2194 27.2647 40.244 27.072 40.244V42.244ZM28.9882 41.5214C29.4843 40.9942 29.644 40.2956 29.644 39.612H27.644C27.644 40.0164 27.5477 40.1338 27.5318 40.1506L28.9882 41.5214ZM29.644 39.612V38.292H27.644V39.612H29.644ZM29.644 38.292C29.644 37.7346 29.5538 37.1184 29.192 36.636L27.592 37.836C27.5736 37.8115 27.5892 37.82 27.6083 37.9001C27.6274 37.98 27.644 38.1065 27.644 38.292H29.644ZM29.2057 36.6548C28.8206 36.1155 28.2406 35.9 27.66 35.9V37.9C27.7112 37.9 27.7064 37.9087 27.6718 37.8928C27.6547 37.885 27.6354 37.8733 27.6168 37.8578C27.5983 37.8425 27.5857 37.8277 27.5783 37.8172L29.2057 36.6548ZM27.66 35.9C27.1719 35.9 26.7158 36.0481 26.3041 36.2882L27.3119 38.0158C27.4762 37.9199 27.5881 37.9 27.66 37.9V35.9ZM26.3224 36.2778C25.9359 36.4925 25.498 36.8357 25.0252 37.2588L26.3588 38.7492C26.798 38.3563 27.1041 38.1315 27.2936 38.0262L26.3224 36.2778ZM26.6908 38.0521L26.7388 37.0561L24.7412 36.9599L24.6932 37.9559L26.6908 38.0521ZM26.4234 37.738C26.7509 37.4314 27.0228 37.2453 27.2379 37.1429L26.3781 35.3371C25.9212 35.5547 25.4811 35.8806 25.0566 36.278L26.4234 37.738ZM27.2297 37.1467C27.4458 37.0462 27.6583 37 27.876 37V35C27.3577 35 26.8582 35.1138 26.3863 35.3333L27.2297 37.1467ZM27.876 37C28.2349 37 28.3652 37.1019 28.437 37.1889L29.979 35.9151C29.4428 35.2661 28.6851 35 27.876 35V37ZM28.437 37.1889C28.5288 37.2999 28.664 37.5863 28.664 38.232H30.664C30.664 37.3737 30.4952 36.5401 29.979 35.9151L28.437 37.1889ZM28.664 38.232V39.708H30.664V38.232H28.664ZM28.664 39.708C28.664 40.3457 28.5032 40.6635 28.3381 40.8318L29.7659 42.2322C30.4168 41.5685 30.664 40.6703 30.664 39.708H28.664ZM28.3379 40.8319C28.1958 40.9769 27.8909 41.144 27.216 41.144V43.144C28.1891 43.144 29.1082 42.9031 29.7661 42.2321L28.3379 40.8319ZM31.4536 41C31.5677 41 31.837 41.0292 32.0707 41.2629C32.3044 41.4966 32.3336 41.7659 32.3336 41.88H30.3336C30.3336 42.0741 30.3828 42.4034 30.6565 42.6771C30.9302 42.9508 31.2594 43 31.4536 43V41ZM32.3336 41.88V33.924H30.3336V41.88H32.3336ZM32.3336 33.924C32.3336 34.0381 32.3044 34.3074 32.0707 34.5411C31.837 34.7748 31.5677 34.804 31.4536 34.804V32.804C31.2594 32.804 30.9302 32.8532 30.6565 33.1269C30.3828 33.4006 30.3336 33.7299 30.3336 33.924H32.3336ZM31.4536 34.804H32.2336V32.804H31.4536V34.804ZM32.2336 34.804C32.1194 34.804 31.8502 34.7748 31.6165 34.5411C31.3828 34.3074 31.3536 34.0381 31.3536 33.924H33.3536C33.3536 33.7299 33.3044 33.4006 33.0307 33.1269C32.757 32.8532 32.4277 32.804 32.2336 32.804V34.804ZM31.3536 33.924V41.88H33.3536V33.924H31.3536ZM31.3536 41.88C31.3536 41.7659 31.3828 41.4966 31.6165 41.2629C31.8502 41.0292 32.1194 41 32.2336 41V43C32.4277 43 32.757 42.9508 33.0307 42.6771C33.3044 42.4034 33.3536 42.0741 33.3536 41.88H31.3536ZM32.2336 41H31.4536V43H32.2336V41ZM34.6258 41.556L33.94 42.2838L33.947 42.2903L34.6258 41.556ZM34.6258 36.588L33.94 35.8602L33.94 35.8602L34.6258 36.588ZM38.3098 36.588L37.624 37.3158L37.631 37.3223L38.3098 36.588ZM38.3218 41.556L39.0076 42.2838L39.0076 42.2838L38.3218 41.556ZM37.5778 40.86L36.8266 40.1999L36.8252 40.2015L37.5778 40.86ZM37.5778 37.296L36.8153 37.943L36.8259 37.9554L36.8368 37.9675L37.5778 37.296ZM35.3578 37.296L34.6066 36.6359L34.6052 36.6375L35.3578 37.296ZM35.3578 40.86L34.5953 41.507L34.6059 41.5194L34.6168 41.5315L35.3578 40.86ZM36.4738 41.144C35.8167 41.144 35.4812 40.985 35.3047 40.8217L33.947 42.2903C34.6184 42.911 35.515 43.144 36.4738 43.144V41.144ZM35.3116 40.8282C35.1656 40.6906 35.0018 40.4053 35.0018 39.768H33.0018C33.0018 40.7307 33.254 41.6374 33.94 42.2838L35.3116 40.8282ZM35.0018 39.768V38.376H33.0018V39.768H35.0018ZM35.0018 38.376C35.0018 37.7387 35.1656 37.4534 35.3116 37.3158L33.94 35.8602C33.254 36.5066 33.0018 37.4133 33.0018 38.376H35.0018ZM35.3116 37.3158C35.4757 37.1612 35.8039 37 36.4738 37V35C35.5117 35 34.608 35.2308 33.94 35.8602L35.3116 37.3158ZM36.4738 37C37.1325 37 37.4583 37.1597 37.624 37.3158L38.9956 35.8602C38.3293 35.2323 37.4311 35 36.4738 35V37ZM37.631 37.3223C37.781 37.461 37.9458 37.744 37.9458 38.376H39.9458C39.9458 37.408 39.6866 36.499 38.9887 35.8537L37.631 37.3223ZM37.9458 38.376V39.768H39.9458V38.376H37.9458ZM37.9458 39.768C37.9458 40.4053 37.782 40.6906 37.636 40.8282L39.0076 42.2838C39.6936 41.6374 39.9458 40.7307 39.9458 39.768H37.9458ZM37.636 40.8282C37.472 40.9828 37.1437 41.144 36.4738 41.144V43.144C37.4359 43.144 38.3397 42.9132 39.0076 42.2838L37.636 40.8282ZM36.4738 42.244C37.1273 42.244 37.8375 42.0818 38.3304 41.5185L36.8252 40.2015C36.8431 40.181 36.8497 40.1881 36.8053 40.2035C36.7542 40.2213 36.6511 40.244 36.4738 40.244V42.244ZM38.329 41.5201C38.7852 41.0009 38.9258 40.3247 38.9258 39.672H36.9258C36.9258 40.0753 36.8344 40.1911 36.8266 40.1999L38.329 41.5201ZM38.9258 39.672V38.472H36.9258V39.672H38.9258ZM38.9258 38.472C38.9258 37.8225 38.7865 37.1406 38.3188 36.6245L36.8368 37.9675C36.8369 37.9676 36.8415 37.9726 36.8491 37.9866C36.8568 38.0011 36.8682 38.0262 36.8799 38.0658C36.9041 38.1473 36.9258 38.2777 36.9258 38.472H38.9258ZM38.3403 36.649C37.8498 36.0709 37.136 35.9 36.4738 35.9V37.9C36.6484 37.9 36.7482 37.9231 36.7962 37.9403C36.8369 37.9549 36.8307 37.9612 36.8153 37.943L38.3403 36.649ZM36.4738 35.9C35.8083 35.9 35.102 36.0722 34.6066 36.6359L36.109 37.9561C36.0991 37.9674 36.0998 37.9575 36.1452 37.9414C36.1973 37.9229 36.2997 37.9 36.4738 37.9V35.9ZM34.6052 36.6375C34.1539 37.1533 34.0218 37.8297 34.0218 38.472H36.0218C36.0218 38.0583 36.1137 37.9507 36.1104 37.9545L34.6052 36.6375ZM34.0218 38.472V39.672H36.0218V38.472H34.0218ZM34.0218 39.672C34.0218 40.3177 34.1553 40.9884 34.5953 41.507L36.1203 40.213C36.1123 40.2036 36.0218 40.0823 36.0218 39.672H34.0218ZM34.6168 41.5315C35.1142 42.0804 35.8167 42.244 36.4738 42.244V40.244C36.1069 40.244 36.0654 40.1516 36.0988 40.1885L34.6168 41.5315ZM40.7234 43.98L41.2475 43.1283L41.2428 43.1255L40.7234 43.98ZM40.3394 41.988L39.4991 41.4459L39.4946 41.4529L40.3394 41.988ZM41.0594 41.388L41.4332 40.4605L41.0265 40.2966L40.6303 40.4847L41.0594 41.388ZM41.8634 41.712L42.1508 42.6698L44.8822 41.8504L42.2372 40.7845L41.8634 41.712ZM41.3354 42.06L40.5162 41.4865L40.5097 41.4958L40.5034 41.5053L41.3354 42.06ZM41.5274 43.308L41.998 42.4256L41.9864 42.4195L41.9746 42.4136L41.5274 43.308ZM44.1074 43.308L43.6487 42.4193L43.6368 42.4256L44.1074 43.308ZM44.3114 42.084L45.0185 41.3769L45.0185 41.3769L44.3114 42.084ZM43.7594 41.904L43.7054 42.9025L43.7168 42.9032L43.7282 42.9035L43.7594 41.904ZM41.5394 41.784L41.475 42.782L41.4854 42.7825L41.5394 41.784ZM40.8554 41.508L40.1948 42.2587L40.2106 42.2727L40.2271 42.2859L40.8554 41.508ZM40.6274 40.248L39.7027 39.8672L39.6967 39.882L39.6911 39.8969L40.6274 40.248ZM40.8794 39.864L40.1723 39.1569L40.1601 39.1691L40.1484 39.1817L40.8794 39.864ZM41.3474 39.468L41.8572 38.6077L41.2822 38.2669L40.7474 38.668L41.3474 39.468ZM41.9954 39.852L42.374 40.7775L44.2345 40.0165L42.5052 38.9917L41.9954 39.852ZM41.6114 40.116L42.404 40.7257L42.404 40.7257L41.6114 40.116ZM41.6354 40.788L41.0807 41.6201L41.1056 41.6367L41.1315 41.6518L41.6354 40.788ZM42.0794 40.896L41.9997 41.8928L42.0095 41.8936L42.0193 41.8942L42.0794 40.896ZM44.0714 41.016L44.139 40.0183L44.1315 40.0178L44.0714 41.016ZM45.1274 41.472L44.3666 42.1209L44.3768 42.133L44.3875 42.1447L45.1274 41.472ZM44.8274 43.956L44.3129 43.0985L44.3037 43.104L44.2946 43.1098L44.8274 43.956ZM41.1794 39.6L40.4971 40.3311L40.4971 40.3311L41.1794 39.6ZM41.1794 36.504L40.5051 35.7655L40.4971 35.7729L41.1794 36.504ZM44.5154 36.516L43.8165 37.2312L43.8247 37.2392L43.8331 37.2471L44.5154 36.516ZM44.5154 39.612L45.1971 40.3436L45.1977 40.3431L44.5154 39.612ZM43.7714 38.964L43.0643 38.2569L43.0643 38.2569L43.7714 38.964ZM43.7714 37.152L43.0643 37.8591L43.0643 37.8591L43.7714 37.152ZM41.9234 37.152L42.6305 37.8591L42.6305 37.8591L41.9234 37.152ZM41.9234 38.964L41.2163 39.6711L41.2245 39.6793L41.2329 39.6874L41.9234 38.964ZM44.3114 36.672L43.9175 37.5911L45.0977 38.097L45.299 36.8288L44.3114 36.672ZM43.4714 36.312L42.477 36.2062L42.3989 36.9403L43.0775 37.2311L43.4714 36.312ZM43.5914 35.376L42.6085 35.1917L42.6062 35.2042L42.6042 35.2168L43.5914 35.376ZM43.7234 34.728L42.7533 34.4855L42.7507 34.4959L42.7483 34.5064L43.7234 34.728ZM44.7194 34.704L45.6711 35.011L45.6743 35.0012L45.6772 34.9913L44.7194 34.704ZM44.5154 35.496L43.5348 35.2999L43.5348 35.2999L44.5154 35.496ZM42.7514 43.364C41.8585 43.364 41.4178 43.2331 41.2475 43.1283L40.1993 44.8317C40.8611 45.2389 41.7723 45.364 42.7514 45.364V43.364ZM41.2428 43.1255C41.1745 43.0839 41.1543 43.0524 41.1455 43.036C41.1349 43.0164 41.1114 42.9618 41.1114 42.84H39.1114C39.1114 43.6707 39.4724 44.3898 40.204 44.8345L41.2428 43.1255ZM41.1114 42.84C41.1114 42.6715 41.1485 42.5795 41.1842 42.5231L39.4946 41.4529C39.2263 41.8765 39.1114 42.3525 39.1114 42.84H41.1114ZM41.1797 42.5301C41.2203 42.4672 41.3026 42.3796 41.4885 42.2913L40.6303 40.4847C40.1763 40.7004 39.7785 41.0128 39.4991 41.4459L41.1797 42.5301ZM40.6856 42.3155L41.4896 42.6395L42.2372 40.7845L41.4332 40.4605L40.6856 42.3155ZM41.5761 40.7542C41.1823 40.8723 40.7898 41.0956 40.5162 41.4865L42.1546 42.6335C42.1444 42.6481 42.1335 42.6605 42.1233 42.6702C42.1132 42.6799 42.1054 42.6855 42.1017 42.688C42.0949 42.6925 42.1069 42.683 42.1508 42.6698L41.5761 40.7542ZM40.5034 41.5053C40.27 41.8553 40.1674 42.249 40.1674 42.648H42.1674C42.1674 42.6198 42.1708 42.608 42.1709 42.6077C42.1711 42.6073 42.1708 42.6084 42.1699 42.6103C42.169 42.6123 42.168 42.6138 42.1675 42.6147L40.5034 41.5053ZM40.1674 42.648C40.1674 42.9301 40.2202 43.2398 40.3795 43.5319C40.5443 43.834 40.7912 44.0579 41.0802 44.2024L41.9746 42.4136C41.9949 42.4237 42.0247 42.4421 42.0565 42.4722C42.0889 42.5028 42.1156 42.538 42.1353 42.5741C42.1746 42.6462 42.1674 42.6859 42.1674 42.648H40.1674ZM41.0568 44.1904C41.5349 44.4453 42.1827 44.5 42.7994 44.5V42.5C42.5265 42.5 42.3216 42.4854 42.1747 42.4632C42.0179 42.4395 41.977 42.4145 41.998 42.4256L41.0568 44.1904ZM42.7994 44.5C43.4323 44.5 44.0969 44.4469 44.578 44.1904L43.6368 42.4256C43.6616 42.4124 43.6209 42.4383 43.4552 42.4626C43.3009 42.4852 43.0858 42.5 42.7994 42.5V44.5ZM44.566 44.1966C45.2298 43.854 45.4794 43.2141 45.4794 42.6H43.4794C43.4794 42.6556 43.4691 42.6309 43.5012 42.5699C43.5175 42.5388 43.5409 42.5063 43.5708 42.477C43.6004 42.448 43.6287 42.4297 43.6488 42.4194L44.566 44.1966ZM45.4794 42.6C45.4794 42.2257 45.39 41.7484 45.0185 41.3769L43.6043 42.7911C43.534 42.7208 43.5004 42.649 43.4865 42.6066C43.4743 42.569 43.4794 42.561 43.4794 42.6H45.4794ZM45.0185 41.3769C44.6434 41.0018 44.152 40.9158 43.7906 40.9045L43.7282 42.9035C43.79 42.9054 43.8012 42.9129 43.7794 42.9057C43.7544 42.8976 43.6817 42.8685 43.6043 42.7911L45.0185 41.3769ZM43.8134 40.9055L41.5934 40.7855L41.4854 42.7825L43.7054 42.9025L43.8134 40.9055ZM41.6038 40.7861C41.5779 40.7844 41.5439 40.7786 41.4837 40.7301L40.2271 42.2859C40.5829 42.5734 41.0049 42.7516 41.475 42.7819L41.6038 40.7861ZM41.516 40.7573C41.5317 40.7711 41.545 40.7866 41.5551 40.8016C41.5649 40.8162 41.5686 40.826 41.569 40.8269C41.5692 40.8274 41.5657 40.8181 41.5622 40.7956C41.5586 40.773 41.5554 40.7391 41.5554 40.692H39.5554C39.5554 41.2333 39.7061 41.8287 40.1948 42.2587L41.516 40.7573ZM41.5554 40.692C41.5554 40.6174 41.5662 40.5924 41.5637 40.5991L39.6911 39.8969C39.5926 40.1596 39.5554 40.4306 39.5554 40.692H41.5554ZM41.5521 40.6287C41.5572 40.6163 41.5711 40.5884 41.6105 40.5463L40.1484 39.1817C39.9637 39.3796 39.8096 39.6077 39.7027 39.8672L41.5521 40.6287ZM41.5865 40.5711C41.6625 40.4951 41.7791 40.3942 41.9474 40.268L40.7474 38.668C40.5317 38.8298 40.3363 38.9929 40.1723 39.1569L41.5865 40.5711ZM40.8376 40.3283L41.4856 40.7123L42.5052 38.9917L41.8572 38.6077L40.8376 40.3283ZM41.6168 38.9265C41.3462 39.0371 41.0443 39.2132 40.8188 39.5063L42.404 40.7257C42.3699 40.7701 42.3406 40.7914 42.3339 40.796C42.3277 40.8003 42.338 40.7923 42.374 40.7775L41.6168 38.9265ZM40.8188 39.5063C40.5991 39.7918 40.4914 40.1281 40.4914 40.476H42.4914C42.4914 40.5074 42.4865 40.5509 42.4701 40.6002C42.4535 40.65 42.4295 40.6926 42.404 40.7257L40.8188 39.5063ZM40.4914 40.476C40.4914 40.8603 40.6364 41.3239 41.0807 41.6201L42.1901 39.9559C42.2945 40.0256 42.3814 40.126 42.4354 40.2429C42.4855 40.3516 42.4914 40.4394 42.4914 40.476H40.4914ZM41.1315 41.6518C41.4232 41.8219 41.7519 41.873 41.9997 41.8928L42.1592 39.8992C42.1288 39.8968 42.105 39.8939 42.0869 39.8912C42.0688 39.8885 42.0584 39.8862 42.0548 39.8853C42.0509 39.8844 42.0567 39.8856 42.07 39.8906C42.083 39.8955 42.1076 39.9057 42.1393 39.9242L41.1315 41.6518ZM42.0193 41.8942L44.0113 42.0142L44.1315 40.0178L42.1395 39.8978L42.0193 41.8942ZM44.0038 42.0137C44.2975 42.0336 44.3604 42.1137 44.3666 42.1209L45.8882 40.8231C45.4305 40.2863 44.7894 40.0624 44.139 40.0183L44.0038 42.0137ZM44.3875 42.1447C44.3975 42.1557 44.4874 42.2646 44.4874 42.648H46.4874C46.4874 41.9914 46.3373 41.3163 45.8673 40.7993L44.3875 42.1447ZM44.4874 42.648C44.4874 42.9812 44.3915 43.0514 44.3129 43.0985L45.3419 44.8135C46.1433 44.3326 46.4874 43.5308 46.4874 42.648H44.4874ZM44.2946 43.1098C44.1087 43.2268 43.6534 43.364 42.7514 43.364V45.364C43.7534 45.364 44.6821 45.2292 45.3602 44.8022L44.2946 43.1098ZM42.8474 39.104C42.219 39.104 41.9596 38.9603 41.8617 38.8689L40.4971 40.3311C41.1192 40.9117 41.9718 41.104 42.8474 41.104V39.104ZM41.8617 38.8689C41.7765 38.7894 41.6394 38.588 41.6394 38.052H39.6394C39.6394 38.908 39.8623 39.7386 40.4971 40.3311L41.8617 38.8689ZM41.6394 38.052C41.6394 37.516 41.7765 37.3146 41.8617 37.2351L40.4971 35.7729C39.8623 36.3654 39.6394 37.196 39.6394 38.052H41.6394ZM41.8537 37.2425C41.9597 37.1457 42.2347 37 42.8834 37V35C41.9961 35 41.1351 35.1903 40.5051 35.7655L41.8537 37.2425ZM42.8834 37C43.4858 37 43.7261 37.1429 43.8165 37.2312L45.2143 35.8008C44.6007 35.2011 43.753 35 42.8834 35V37ZM43.8331 37.2471C43.9183 37.3266 44.0554 37.528 44.0554 38.064H46.0554C46.0554 37.208 45.8325 36.3774 45.1977 35.7849L43.8331 37.2471ZM44.0554 38.064C44.0554 38.6 43.9183 38.8014 43.8331 38.8809L45.1977 40.3431C45.8325 39.7506 46.0554 38.92 46.0554 38.064H44.0554ZM43.8337 38.8804C43.7488 38.9595 43.4948 39.104 42.8474 39.104V41.104C43.72 41.104 44.578 40.9205 45.1971 40.3436L43.8337 38.8804ZM42.8474 40.216C43.3508 40.216 44.014 40.1357 44.4785 39.6711L43.0643 38.2569C43.1385 38.1827 43.193 38.1769 43.1513 38.1882C43.1098 38.1996 43.0153 38.216 42.8474 38.216V40.216ZM44.4785 39.6711C44.9372 39.2124 45.0354 38.5785 45.0354 38.064H43.0354C43.0354 38.2122 43.0194 38.2929 43.0098 38.3255C43.0011 38.3552 43.0072 38.314 43.0643 38.2569L44.4785 39.6711ZM45.0354 38.064C45.0354 37.548 44.9399 36.9063 44.4785 36.4449L43.0643 37.8591C43.0048 37.7996 42.9993 37.7571 43.0088 37.7901C43.0191 37.8256 43.0354 37.9103 43.0354 38.064H45.0354ZM44.4785 36.4449C44.0146 35.981 43.3651 35.888 42.8474 35.888V37.888C43.0065 37.888 43.0953 37.9046 43.1337 37.9155C43.17 37.9259 43.1261 37.9209 43.0643 37.8591L44.4785 36.4449ZM42.8474 35.888C42.3297 35.888 41.6802 35.981 41.2163 36.4449L42.6305 37.8591C42.5687 37.9209 42.5248 37.9259 42.5611 37.9155C42.5995 37.9046 42.6883 37.888 42.8474 37.888V35.888ZM41.2163 36.4449C40.7549 36.9063 40.6594 37.548 40.6594 38.064H42.6594C42.6594 37.9103 42.6757 37.8256 42.686 37.7901C42.6955 37.7571 42.69 37.7996 42.6305 37.8591L41.2163 36.4449ZM40.6594 38.064C40.6594 38.5785 40.7576 39.2124 41.2163 39.6711L42.6305 38.2569C42.6876 38.314 42.6937 38.3552 42.685 38.3255C42.6754 38.2929 42.6594 38.2122 42.6594 38.064H40.6594ZM41.2329 39.6874C41.6969 40.1303 42.3384 40.216 42.8474 40.216V38.216C42.6854 38.216 42.5923 38.1999 42.5495 38.1882C42.5074 38.1768 42.55 38.1797 42.6139 38.2406L41.2329 39.6874ZM44.7053 35.7529L43.8653 35.3929L43.0775 37.2311L43.9175 37.5911L44.7053 35.7529ZM44.4658 36.4178C44.5047 36.0517 44.5425 35.759 44.5786 35.5352L42.6042 35.2168C42.5603 35.489 42.5181 35.8203 42.477 36.2062L44.4658 36.4178ZM44.5743 35.5603C44.6209 35.3118 44.6623 35.1091 44.6985 34.9496L42.7483 34.5064C42.7045 34.6989 42.6579 34.9282 42.6085 35.1917L44.5743 35.5603ZM44.6935 34.9705C44.6805 35.0228 44.6344 35.1772 44.4845 35.3271C44.3087 35.5029 44.0788 35.584 43.8674 35.584V33.584C43.584 33.584 43.2941 33.6891 43.0703 33.9129C42.8724 34.1108 42.7903 34.3372 42.7533 34.4855L44.6935 34.9705ZM43.8674 35.584H44.6234V33.584H43.8674V35.584ZM44.6234 35.584C44.5744 35.584 44.2074 35.5823 43.9325 35.2387C43.64 34.873 43.7396 34.4899 43.7616 34.4167L45.6772 34.9913C45.7232 34.8381 45.8188 34.395 45.4943 33.9893C45.1874 33.6057 44.7604 33.584 44.6234 33.584V35.584ZM43.7677 34.397C43.6749 34.6846 43.5976 34.9859 43.5348 35.2999L45.496 35.6921C45.5452 35.4461 45.6039 35.2194 45.6711 35.011L43.7677 34.397ZM43.5348 35.2999C43.4749 35.5993 43.4045 36.0066 43.3238 36.5152L45.299 36.8288C45.3783 36.3294 45.4439 35.9527 45.496 35.6921L43.5348 35.2999Z" fill="black" mask="url(#path-5-outside-1_123_4297)"/>
</g>
<defs>
<clipPath id="clip0_123_4297">
<rect width="48" height="48" fill="white"/>
</clipPath>
</defs>
</svg>
