<svg id="euC2PD7AXhe1" xmlns="http://www.w3.org/2000/svg" xmlns:xlink="http://www.w3.org/1999/xlink" viewBox="0 0 512 144" shape-rendering="geometricPrecision" text-rendering="geometricPrecision">
<style><![CDATA[
#euC2PD7AXhe2_to {animation: euC2PD7AXhe2_to__to 1000ms linear infinite normal forwards}@keyframes euC2PD7AXhe2_to__to { 0% {transform: translate(545.432631px,703.137601px)} 10% {transform: translate(519.953328px,703.137601px)} 20% {transform: translate(550.690264px,703.137601px)} 30% {transform: translate(531.833558px,698.2844px)} 40% {transform: translate(511.936881px,712.324015px)} 50% {transform: translate(505.386505px,693.806744px)} 60% {transform: translate(545.432631px,703.137601px)} 70% {transform: translate(596.391236px,692.2179px)} 100% {transform: translate(545.432631px,703.137601px)}} #euC2PD7AXhe3_to {animation: euC2PD7AXhe3_to__to 1000ms linear infinite normal forwards}@keyframes euC2PD7AXhe3_to__to { 0% {transform: translate(421.302724px,704.437542px)} 10% {transform: translate(395.823421px,704.437542px)} 20% {transform: translate(426.560357px,704.437542px)} 30% {transform: translate(407.703651px,699.584341px)} 40% {transform: translate(387.806974px,713.623956px)} 50% {transform: translate(381.256598px,695.106685px)} 60% {transform: translate(421.302724px,704.437542px)} 70% {transform: translate(472.261329px,693.517841px)} 100% {transform: translate(421.302724px,704.437542px)}}
]]></style>
<g id="euC2PD7AXhe2_to" transform="translate(545.432631,703.137601)"><path d="M284.520138,41.680227v30.633177h-34.167775l-3.534599-2.749133-4.51643,4.123696q-8.836493-3.730964-9.818326-11.978358c-.981833-8.247394-.184186-20.029382,9.818326-28.27678s19.084917-9.713436,29.847712-7.854661q10.762795,1.858775,17.869356,16.102063l-5.498264-.000004Z" transform="translate(-448.023561,-687.175591)" stroke-width="2.16"/></g><g id="euC2PD7AXhe3_to" transform="translate(421.302724,704.437542)"><path d="M232.483009,61.709613q1.485463-15.156742-29.979772-20.029382t-51.915322-31.668438q-7.730944,27.828466,9.846685,40.263142t22.538671,11.434676q-18.423967-1.410097-26.611909-6.08968-4.585161-2.620517-16.298875-14.340023q0,14.340023,6.022037,20.429703q4.63102,4.683038,16.731695,10.290387c-9.785668-.27278-18.05333-.768949-22.753732-6.915627-1.12595.281487,4.840243,9.315969,10.525428,11.978358s-80.237879,8.929385-103.935363,5.904175q-23.697484-3.02521-21.176475-2.521009q41.276777,13.074803,86.880156,24.288052c45.603379,11.213249,105.48622,8.448829,119.820976-9.702436q14.334756-18.151265.3058-33.321898Z" transform="translate(-322.206273,-693.063594)" stroke-width="2.16"/></g></svg>
