<svg xmlns="http://www.w3.org/2000/svg" xmlns:xlink="http://www.w3.org/1999/xlink" width="500" zoomAndPan="magnify" viewBox="0 0 375 374.999991" height="500" preserveAspectRatio="xMidYMid meet" version="1.0"><defs><clipPath id="eefddfe874"><path d="M 70.609375 89 L 218 89 L 218 255 L 70.609375 255 Z M 70.609375 89 " clip-rule="nonzero"/></clipPath><clipPath id="a9216dff83"><path d="M 243 112 L 304.609375 112 L 304.609375 246 L 243 246 Z M 243 112 " clip-rule="nonzero"/></clipPath><clipPath id="42fd44ad91"><path d="M 172 84.785156 L 302 84.785156 L 302 241 L 172 241 Z M 172 84.785156 " clip-rule="nonzero"/></clipPath><clipPath id="f74a985d05"><path d="M 261 237 L 276 237 L 276 290.285156 L 261 290.285156 Z M 261 237 " clip-rule="nonzero"/></clipPath><clipPath id="2dd4a198aa"><path d="M 261 237 L 270 237 L 270 290.285156 L 261 290.285156 Z M 261 237 " clip-rule="nonzero"/></clipPath></defs><path fill="#3463a3" d="M 130.949219 256.675781 L 129.472656 253.371094 L 143.621094 247.046875 L 143.65625 250.996094 L 130.949219 256.675781 M 182.589844 136.144531 L 163.398438 93.25 L 166.707031 91.773438 L 186.542969 136.109375 L 182.589844 136.144531 " fill-opacity="1" fill-rule="nonzero"/><g clip-path="url(#eefddfe874)"><path fill="#eae5dc" d="M 217.449219 214.058594 L 126.164062 254.847656 L 70.640625 130.734375 L 161.921875 89.949219 L 217.449219 214.058594 " fill-opacity="1" fill-rule="nonzero"/></g><path fill="#7cc5ee" d="M 124.753906 159.625 L 97.292969 171.898438 L 85.015625 144.453125 L 112.476562 132.183594 L 124.753906 159.625 " fill-opacity="1" fill-rule="nonzero"/><path fill="#fabe6d" d="M 163.972656 111.246094 L 116.679688 132.375 L 115.90625 130.648438 L 163.199219 109.519531 L 163.972656 111.246094 " fill-opacity="1" fill-rule="nonzero"/><path fill="#cac5bd" d="M 166.699219 117.34375 L 119.410156 138.476562 L 118.636719 136.746094 L 165.929688 115.617188 L 166.699219 117.34375 " fill-opacity="1" fill-rule="nonzero"/><path fill="#cac5bd" d="M 169.429688 123.441406 L 122.136719 144.574219 L 121.367188 142.847656 L 168.65625 121.714844 L 169.429688 123.441406 " fill-opacity="1" fill-rule="nonzero"/><path fill="#cac5bd" d="M 172.160156 129.539062 L 124.863281 150.671875 L 124.09375 148.945312 L 171.386719 127.8125 L 172.160156 129.539062 " fill-opacity="1" fill-rule="nonzero"/><path fill="#cac5bd" d="M 159.558594 142.488281 L 127.59375 156.769531 L 126.820312 155.042969 L 158.785156 140.761719 L 159.558594 142.488281 " fill-opacity="1" fill-rule="nonzero"/><path fill="#cac5bd" d="M 152.859375 170.53125 L 105.566406 191.664062 L 104.792969 189.9375 L 152.085938 168.804688 L 152.859375 170.53125 " fill-opacity="1" fill-rule="nonzero"/><path fill="#cac5bd" d="M 155.585938 176.632812 L 108.296875 197.765625 L 107.523438 196.035156 L 154.8125 174.902344 L 155.585938 176.632812 " fill-opacity="1" fill-rule="nonzero"/><path fill="#cac5bd" d="M 158.3125 182.730469 L 111.023438 203.859375 L 110.25 202.132812 L 157.539062 181.003906 L 158.3125 182.730469 " fill-opacity="1" fill-rule="nonzero"/><path fill="#cac5bd" d="M 161.042969 188.828125 L 113.75 209.960938 L 112.976562 208.234375 L 160.269531 187.101562 L 161.042969 188.828125 " fill-opacity="1" fill-rule="nonzero"/><path fill="#cac5bd" d="M 148.441406 201.773438 L 116.480469 216.058594 L 115.707031 214.332031 L 147.671875 200.046875 L 148.441406 201.773438 " fill-opacity="1" fill-rule="nonzero"/><path fill="#fabe6d" d="M 194.59375 180.117188 L 169.707031 191.238281 L 158.410156 165.980469 L 183.296875 154.859375 L 194.59375 180.117188 " fill-opacity="1" fill-rule="nonzero"/><path fill="#181a2c" d="M 107.253906 167.445312 L 105.863281 162.925781 C 105.863281 162.925781 105.433594 160.773438 102.960938 160.773438 C 102.960938 160.773438 100.546875 161.9375 101.300781 165.011719 L 102.351562 169.636719 L 107.253906 167.445312 " fill-opacity="1" fill-rule="nonzero"/><path fill="#1b1e32" d="M 115.535156 163.746094 L 119.691406 161.886719 L 116.371094 157.296875 C 115.445312 156.265625 113.410156 156.398438 113.410156 156.398438 C 111.046875 158.335938 113.664062 161.402344 113.664062 161.402344 L 115.535156 163.746094 " fill-opacity="1" fill-rule="nonzero"/><path fill="#582312" d="M 106.375 155.078125 C 105.175781 150.441406 103.480469 148.226562 102.359375 147.148438 C 101.238281 146.074219 96.511719 147.289062 96.40625 149.261719 C 96.40625 149.261719 101.367188 157.710938 102.335938 163.140625 C 102.335938 163.140625 107.8125 159.125 106.375 155.078125 " fill-opacity="1" fill-rule="nonzero"/><path fill="#f7ac80" d="M 113.84375 164.5 L 110.792969 157.675781 L 104.066406 160.679688 L 107.117188 167.503906 L 113.84375 164.5 " fill-opacity="1" fill-rule="nonzero"/><path fill="#f7ac80" d="M 101.910156 163.328125 C 102.167969 161.664062 103.324219 160.726562 103.324219 160.726562 L 105.953125 158.152344 L 108.953125 156.8125 L 112.621094 156.570312 C 112.621094 156.570312 114.09375 156.335938 115.503906 157.253906 L 101.910156 163.328125 " fill-opacity="1" fill-rule="nonzero"/><path fill="#f7ac80" d="M 109.5625 159.078125 C 109.5625 159.078125 112.371094 165.683594 116.285156 162.195312 C 116.285156 162.195312 118.164062 156.566406 113.085938 156.546875 L 109.5625 159.078125 " fill-opacity="1" fill-rule="nonzero"/><path fill="#f7ac80" d="M 106.019531 159.410156 L 109.542969 157.835938 L 107.746094 153.8125 L 104.222656 155.386719 L 106.019531 159.410156 " fill-opacity="1" fill-rule="nonzero"/><path fill="#f5966a" d="M 105.046875 157.234375 L 104.222656 155.386719 L 107.746094 153.8125 L 108.730469 156.015625 C 107.488281 156.585938 106.289062 157.113281 105.046875 157.234375 " fill-opacity="1" fill-rule="nonzero"/><path fill="#f7ac80" d="M 108.386719 152.191406 C 108.375 152.546875 108.308594 152.894531 108.15625 153.238281 C 107.464844 154.765625 106.273438 156.121094 104.703125 156.75 C 99.878906 156.605469 98.035156 148.175781 98.035156 148.175781 C 97.136719 144.152344 100.371094 142.863281 100.371094 142.863281 C 102.769531 141.773438 105.460938 142.035156 106.871094 144.457031 C 107.410156 145.382812 107.648438 146.515625 107.996094 147.523438 C 108.25 148.261719 108.449219 149.019531 108.496094 149.800781 C 108.542969 150.601562 108.410156 151.394531 108.386719 152.191406 " fill-opacity="1" fill-rule="nonzero"/><path fill="#723019" d="M 108.703125 147.804688 C 108.703125 147.804688 109.234375 146.089844 107.972656 143.664062 C 107.972656 143.664062 107.011719 140.160156 102.53125 140.699219 C 102.53125 140.699219 98.175781 141.386719 97.125 144.746094 C 97.125 144.746094 102.339844 147.433594 107.558594 149.042969 C 107.558594 149.042969 107.597656 147.714844 108.722656 147.722656 " fill-opacity="1" fill-rule="nonzero"/><path fill="#d82930" d="M 116.273438 163.414062 C 111.878906 162.347656 112.007812 156.613281 112.007812 156.613281 L 109.90625 156.75 L 110.898438 161.726562 C 110.898438 161.726562 111.34375 162.871094 110.109375 163.421875 L 107.347656 164.65625 C 107.347656 164.65625 106.355469 165.214844 106.121094 164.347656 L 105.128906 158.957031 L 103.753906 160.304688 C 103.753906 160.304688 104.628906 163.78125 104.207031 166.203125 C 104.207031 166.203125 104.117188 167.40625 104.78125 168.550781 L 116.273438 163.414062 " fill-opacity="1" fill-rule="nonzero"/><path fill="#252a34" d="M 101.410156 151.296875 C 101.535156 151.570312 101.480469 151.855469 101.292969 151.941406 C 101.105469 152.023438 100.855469 151.871094 100.734375 151.601562 C 100.613281 151.332031 100.667969 151.042969 100.855469 150.960938 C 101.039062 150.875 101.289062 151.027344 101.410156 151.296875 " fill-opacity="1" fill-rule="nonzero"/><path fill="#252a34" d="M 104.363281 149.980469 C 104.484375 150.25 104.429688 150.539062 104.246094 150.621094 C 104.058594 150.703125 103.808594 150.550781 103.6875 150.28125 C 103.566406 150.011719 103.621094 149.722656 103.804688 149.640625 C 103.992188 149.558594 104.238281 149.707031 104.363281 149.980469 " fill-opacity="1" fill-rule="nonzero"/><path fill="#f5966a" d="M 103.828125 152.527344 C 103.828125 152.527344 103.734375 152.617188 103.660156 152.726562 L 103.585938 152.800781 L 103.515625 152.867188 L 103.445312 152.921875 L 103.371094 152.957031 L 103.285156 152.984375 L 103.1875 153.007812 C 103.117188 153.03125 103.054688 153.027344 102.984375 153.046875 C 102.914062 153.054688 102.839844 153.054688 102.796875 153.0625 L 102.71875 153.078125 L 102.761719 153.144531 C 102.792969 153.183594 102.828125 153.238281 102.898438 153.285156 C 102.96875 153.328125 103.0625 153.390625 103.175781 153.402344 C 103.230469 153.40625 103.292969 153.429688 103.355469 153.414062 C 103.417969 153.398438 103.484375 153.390625 103.546875 153.367188 C 103.609375 153.328125 103.664062 153.292969 103.71875 153.253906 L 103.832031 153.097656 L 103.886719 152.941406 L 103.90625 152.800781 C 103.886719 152.625 103.828125 152.527344 103.828125 152.527344 " fill-opacity="1" fill-rule="nonzero"/><path fill="#80361d" d="M 101.429688 150.003906 C 101.464844 150.152344 101.382812 150.292969 101.25 150.328125 C 100.78125 150.457031 100.339844 150.65625 99.929688 150.917969 C 99.8125 150.992188 99.652344 150.960938 99.566406 150.835938 C 99.484375 150.714844 99.511719 150.535156 99.644531 150.453125 C 100.09375 150.164062 100.578125 149.949219 101.089844 149.808594 C 101.242188 149.761719 101.394531 149.859375 101.429688 150.003906 " fill-opacity="1" fill-rule="nonzero"/><path fill="#80361d" d="M 104.386719 148.683594 C 104.417969 148.828125 104.339844 148.972656 104.203125 149.007812 C 103.738281 149.136719 103.292969 149.335938 102.886719 149.597656 C 102.769531 149.671875 102.609375 149.640625 102.519531 149.515625 C 102.4375 149.390625 102.46875 149.21875 102.601562 149.132812 C 103.046875 148.847656 103.535156 148.625 104.046875 148.484375 C 104.195312 148.445312 104.347656 148.535156 104.386719 148.683594 " fill-opacity="1" fill-rule="nonzero"/><path fill="#f5937b" d="M 101.878906 152.558594 C 102.011719 152.855469 101.714844 153.277344 101.21875 153.5 C 100.71875 153.722656 100.207031 153.660156 100.074219 153.367188 C 99.941406 153.066406 100.238281 152.648438 100.734375 152.421875 C 101.234375 152.199219 101.746094 152.261719 101.878906 152.558594 " fill-opacity="1" fill-rule="nonzero"/><path fill="#f5937b" d="M 105.878906 150.769531 C 106.011719 151.066406 105.714844 151.488281 105.21875 151.714844 C 104.71875 151.933594 104.207031 151.875 104.078125 151.578125 C 103.941406 151.28125 104.238281 150.859375 104.734375 150.636719 C 105.234375 150.414062 105.746094 150.472656 105.878906 150.769531 " fill-opacity="1" fill-rule="nonzero"/><path fill="#f5966a" d="M 104.714844 155.140625 L 104.242188 155.347656 C 104.136719 155.398438 104.011719 155.347656 103.964844 155.242188 C 103.917969 155.140625 103.964844 155.015625 104.070312 154.964844 L 104.542969 154.757812 C 104.648438 154.710938 104.773438 154.757812 104.820312 154.863281 C 104.867188 154.964844 104.820312 155.09375 104.714844 155.140625 " fill-opacity="1" fill-rule="nonzero"/><path fill="#f15777" d="M 102.859375 154.46875 C 103.582031 154.46875 104.402344 154.121094 104.980469 153.519531 L 103.902344 153.632812 L 103.871094 154.019531 L 103.527344 153.800781 L 102.859375 154.46875 " fill-opacity="1" fill-rule="nonzero"/><path fill="#f15777" d="M 104.847656 153.65625 C 104.847656 153.65625 104.984375 154.332031 104.226562 154.667969 C 104.226562 154.667969 103.476562 155.023438 103.046875 154.460938 L 104.847656 153.65625 " fill-opacity="1" fill-rule="nonzero"/><path fill="#80361d" d="M 96.921875 150.246094 C 96.921875 150.246094 96.058594 148.945312 95.710938 147.011719 C 95.175781 144.046875 98.882812 140.828125 101.980469 140.78125 L 101.777344 146.796875 C 101.777344 146.796875 98.058594 151.808594 96.921875 150.246094 " fill-opacity="1" fill-rule="nonzero"/><path fill="#f7ac80" d="M 107.558594 149.042969 C 107.558594 149.042969 107.527344 147.625 108.722656 147.722656 C 108.722656 147.722656 109.445312 147.804688 109.402344 148.9375 C 109.402344 148.9375 109.339844 150.4375 108.144531 150.355469 L 107.558594 149.042969 " fill-opacity="1" fill-rule="nonzero"/><path fill="#1b1e32" d="M 104.207031 166.203125 C 104.207031 166.203125 104.054688 167.273438 104.707031 168.582031 L 109.609375 166.394531 L 105.128906 158.957031 L 101.941406 161.628906 C 101.941406 161.628906 101.1875 162.53125 102.070312 163.6875 L 104.207031 166.203125 " fill-opacity="1" fill-rule="nonzero"/><path fill="#1b1e32" d="M 117.714844 162.773438 L 117 159.835938 C 116.519531 156.53125 113.6875 156.378906 113.6875 156.378906 L 109.660156 156.636719 L 112.054688 165.300781 L 117.714844 162.773438 " fill-opacity="1" fill-rule="nonzero"/><path fill="#262c49" d="M 112.792969 164.96875 L 113.023438 161.6875 L 111.90625 161.507812 L 112.804688 160.378906 L 110.917969 156.558594 L 109.660156 156.636719 L 112.054688 165.300781 L 112.792969 164.96875 " fill-opacity="1" fill-rule="nonzero"/><path fill="#723019" d="M 104.203125 147.875 C 104.203125 147.875 107.941406 153.429688 110.03125 160.128906 C 110.03125 160.128906 112.550781 156.273438 113.039062 152.429688 C 113.039062 152.429688 109.460938 143.570312 106.222656 141.402344 L 104.203125 147.875 " fill-opacity="1" fill-rule="nonzero"/><path fill="#262c49" d="M 106.652344 164.828125 L 108.851562 166.730469 L 109.609375 166.394531 L 105.128906 158.957031 L 104.191406 159.742188 L 105.824219 163.796875 L 107.261719 163.875 L 106.652344 164.828125 " fill-opacity="1" fill-rule="nonzero"/><path fill="#73d1e6" d="M 147.273438 108.597656 L 94.316406 132.261719 L 92.84375 128.96875 L 145.800781 105.304688 L 147.273438 108.597656 " fill-opacity="1" fill-rule="nonzero"/><path fill="#f46f3f" d="M 186.371094 195.992188 L 133.414062 219.652344 L 131.941406 216.359375 L 184.898438 192.695312 L 186.371094 195.992188 " fill-opacity="1" fill-rule="nonzero"/><path fill="#aadd7c" d="M 167.558594 153.941406 L 114.601562 177.601562 L 113.128906 174.3125 L 166.085938 150.648438 L 167.558594 153.941406 " fill-opacity="1" fill-rule="nonzero"/><path fill="#cac5bd" d="M 199.460938 197.964844 L 126.15625 230.722656 L 125.382812 228.992188 L 198.6875 196.238281 L 199.460938 197.964844 " fill-opacity="1" fill-rule="nonzero"/><path fill="#cac5bd" d="M 202.191406 204.0625 L 128.886719 236.820312 L 128.113281 235.09375 L 201.417969 202.335938 L 202.191406 204.0625 " fill-opacity="1" fill-rule="nonzero"/><path fill="#cac5bd" d="M 204.917969 210.160156 L 131.613281 242.917969 L 130.84375 241.191406 L 204.148438 208.433594 L 204.917969 210.160156 " fill-opacity="1" fill-rule="nonzero"/><g clip-path="url(#a9216dff83)"><path fill="#3463a3" d="M 271.65625 245.304688 L 243.539062 238.289062 L 243.503906 234.546875 L 265.097656 239.9375 L 265.097656 241.746094 L 272.410156 241.746094 L 272.410156 231.859375 C 273.328125 231.746094 274.238281 231.597656 275.125 231.410156 L 271.65625 245.304688 M 288.378906 178.378906 C 287.378906 177.539062 286.328125 176.757812 285.226562 176.050781 L 301.097656 112.523438 L 304.609375 113.402344 L 288.378906 178.378906 " fill-opacity="1" fill-rule="nonzero"/></g><g clip-path="url(#42fd44ad91)"><path fill="#eae5dc" d="M 269.019531 240.914062 L 172.007812 216.710938 L 204.964844 84.808594 L 301.972656 109.011719 L 269.019531 240.914062 " fill-opacity="1" fill-rule="nonzero"/></g><path fill="#7cc5ee" d="M 229.703125 140.914062 L 200.515625 133.628906 L 207.804688 104.464844 L 236.988281 111.746094 L 229.703125 140.914062 " fill-opacity="1" fill-rule="nonzero"/><path fill="#fabe6d" d="M 290.4375 127.035156 L 240.175781 114.492188 L 240.632812 112.660156 L 290.894531 125.199219 L 290.4375 127.035156 " fill-opacity="1" fill-rule="nonzero"/><path fill="#cac5bd" d="M 288.816406 133.515625 L 238.558594 120.976562 L 239.015625 119.140625 L 289.277344 131.683594 L 288.816406 133.515625 " fill-opacity="1" fill-rule="nonzero"/><path fill="#cac5bd" d="M 287.199219 139.996094 L 236.9375 127.457031 L 237.398438 125.621094 L 287.65625 138.164062 L 287.199219 139.996094 " fill-opacity="1" fill-rule="nonzero"/><path fill="#cac5bd" d="M 285.578125 146.480469 L 235.320312 133.9375 L 235.777344 132.101562 L 286.039062 144.644531 L 285.578125 146.480469 " fill-opacity="1" fill-rule="nonzero"/><path fill="#cac5bd" d="M 267.667969 148.898438 L 233.699219 140.417969 L 234.160156 138.585938 L 268.125 147.058594 L 267.667969 148.898438 " fill-opacity="1" fill-rule="nonzero"/><path fill="#cac5bd" d="M 245.078125 166.832031 L 194.816406 154.285156 L 195.277344 152.453125 L 245.539062 164.996094 L 245.078125 166.832031 " fill-opacity="1" fill-rule="nonzero"/><path fill="#cac5bd" d="M 243.460938 173.3125 L 193.199219 160.769531 L 193.65625 158.933594 L 243.917969 171.476562 L 243.460938 173.3125 " fill-opacity="1" fill-rule="nonzero"/><path fill="#cac5bd" d="M 241.839844 179.789062 L 191.578125 167.25 L 192.039062 165.414062 L 242.300781 177.957031 L 241.839844 179.789062 " fill-opacity="1" fill-rule="nonzero"/><path fill="#cac5bd" d="M 240.21875 186.273438 L 189.960938 173.734375 L 190.417969 171.894531 L 240.679688 184.4375 L 240.21875 186.273438 " fill-opacity="1" fill-rule="nonzero"/><path fill="#cac5bd" d="M 222.3125 188.691406 L 188.339844 180.210938 L 188.800781 178.378906 L 222.769531 186.855469 L 222.3125 188.691406 " fill-opacity="1" fill-rule="nonzero"/><path fill="#fabe6d" d="M 272 200.113281 L 245.550781 193.511719 L 252.257812 166.671875 L 278.703125 173.269531 L 272 200.113281 " fill-opacity="1" fill-rule="nonzero"/><path fill="#73d1e6" d="M 278.929688 114.652344 L 222.648438 100.609375 L 223.523438 97.109375 L 279.804688 111.152344 L 278.929688 114.652344 " fill-opacity="1" fill-rule="nonzero"/><path fill="#f46f3f" d="M 255.726562 207.53125 L 199.445312 193.488281 L 200.320312 189.988281 L 256.601562 204.03125 L 255.726562 207.53125 " fill-opacity="1" fill-rule="nonzero"/><path fill="#aadd7c" d="M 266.890625 162.839844 L 210.609375 148.796875 L 211.484375 145.296875 L 267.765625 159.34375 L 266.890625 162.839844 " fill-opacity="1" fill-rule="nonzero"/><path fill="#cac5bd" d="M 264.808594 217.160156 L 186.902344 197.71875 L 187.359375 195.882812 L 265.269531 215.324219 L 264.808594 217.160156 " fill-opacity="1" fill-rule="nonzero"/><path fill="#cac5bd" d="M 263.1875 223.640625 L 185.28125 204.199219 L 185.742188 202.367188 L 263.648438 221.804688 L 263.1875 223.640625 " fill-opacity="1" fill-rule="nonzero"/><path fill="#cac5bd" d="M 261.570312 230.121094 L 183.664062 210.679688 L 184.121094 208.847656 L 262.027344 228.285156 L 261.570312 230.121094 " fill-opacity="1" fill-rule="nonzero"/><path fill="#351f17" d="M 214.660156 114.519531 C 213.574219 115.664062 213.046875 117.167969 212.601562 118.65625 C 212.171875 120.089844 212.382812 121.535156 212.109375 122.984375 C 211.816406 124.503906 211 125.117188 210.230469 126.324219 C 208.226562 129.484375 213.28125 131.304688 215.539062 131.972656 C 218.097656 132.730469 221.675781 134.417969 223.875 131.921875 C 224.761719 130.914062 225.15625 129.425781 224.890625 128.144531 C 224.585938 126.6875 225.042969 125.898438 225.644531 124.628906 C 226.296875 123.253906 226.59375 121.699219 226.65625 120.195312 C 226.722656 118.691406 226.703125 116.988281 225.988281 115.628906 C 225.617188 114.925781 224.949219 114.066406 224.261719 113.644531 C 223.199219 112.996094 221.898438 112.535156 220.664062 112.394531 C 218.417969 112.136719 216.21875 112.871094 214.660156 114.519531 " fill-opacity="1" fill-rule="nonzero"/><path fill="#f7ac80" d="M 223.84375 134.03125 C 223.296875 132.4375 222.277344 131.789062 222.277344 131.789062 L 219.242188 129.714844 L 216.050781 128.921875 L 212.398438 129.324219 C 212.398438 129.324219 210.910156 129.347656 209.679688 130.496094 L 223.84375 134.03125 " fill-opacity="1" fill-rule="nonzero"/><path fill="#1b1e32" d="M 220.828125 138.699219 L 223.535156 139.375 L 224.085938 133.011719 C 223.117188 131.492188 222.007812 131.617188 222.007812 131.617188 C 218.375 132.644531 220.085938 136.9375 220.085938 136.9375 L 220.828125 138.699219 " fill-opacity="1" fill-rule="nonzero"/><path fill="#f7ac80" d="M 215.824219 131.351562 C 215.824219 131.351562 214.214844 138.34375 209.753906 135.59375 C 209.753906 135.59375 206.917969 130.378906 211.917969 129.472656 L 215.824219 131.351562 " fill-opacity="1" fill-rule="nonzero"/><path fill="#f7ac80" d="M 219.375 131.054688 L 215.625 130.121094 L 216.695312 125.851562 L 220.441406 126.785156 L 219.375 131.054688 " fill-opacity="1" fill-rule="nonzero"/><path fill="#f5966a" d="M 219.949219 128.746094 L 220.441406 126.785156 L 216.695312 125.851562 L 216.109375 128.191406 C 217.429688 128.535156 218.707031 128.84375 219.949219 128.746094 " fill-opacity="1" fill-rule="nonzero"/><path fill="#f7ac80" d="M 215.78125 124.363281 C 215.847656 124.710938 215.976562 125.042969 216.191406 125.351562 C 217.136719 126.738281 218.546875 127.863281 220.207031 128.207031 C 224.929688 127.222656 225.269531 118.605469 225.269531 118.605469 C 225.453125 114.480469 222.039062 113.777344 222.039062 113.777344 C 219.488281 113.128906 216.878906 113.851562 215.917969 116.484375 C 215.546875 117.492188 215.515625 118.648438 215.347656 119.699219 C 215.226562 120.472656 215.160156 121.253906 215.253906 122.03125 C 215.347656 122.828125 215.617188 123.585938 215.78125 124.363281 " fill-opacity="1" fill-rule="nonzero"/><path fill="#351f17" d="M 220.03125 112.488281 C 216.070312 112.480469 215.015625 115.488281 215.015625 115.488281 C 214.199219 118.097656 214.703125 120.101562 214.703125 120.101562 C 216.417969 120.03125 216.074219 122.0625 216.074219 122.0625 L 217.472656 119.726562 L 217.460938 118.441406 L 219.824219 117.3125 C 219.824219 117.3125 220.675781 119.242188 225.148438 119.898438 C 225.148438 119.898438 226.933594 113.394531 220.03125 112.488281 " fill-opacity="1" fill-rule="nonzero"/><path fill="#f7ac80" d="M 216.042969 121.117188 C 216.042969 121.117188 215.828125 119.71875 214.667969 120.023438 C 214.667969 120.023438 213.96875 120.226562 214.210938 121.335938 C 214.210938 121.335938 214.535156 122.804688 215.695312 122.515625 L 216.042969 121.117188 " fill-opacity="1" fill-rule="nonzero"/><path fill="#f14179" d="M 209.785156 135.945312 L 222.066406 139.007812 C 222.375 138.125 222.347656 137.429688 222.347656 137.429688 C 221.507812 135.117188 221.757812 131.542969 221.757812 131.542969 L 220.167969 130.457031 C 219.644531 131.46875 218.363281 131.664062 218.363281 131.664062 C 216.203125 130.878906 215.078125 129.117188 215.078125 129.117188 L 212.988281 129.347656 C 212.988281 129.347656 214.382812 133.976562 209.753906 135.59375 L 209.765625 135.617188 L 209.785156 135.945312 " fill-opacity="1" fill-rule="nonzero"/><path fill="#252a34" d="M 222.492188 122.265625 C 222.417969 122.554688 222.523438 122.828125 222.71875 122.875 C 222.917969 122.925781 223.136719 122.734375 223.207031 122.445312 C 223.28125 122.160156 223.179688 121.882812 222.980469 121.835938 C 222.78125 121.785156 222.5625 121.980469 222.492188 122.265625 " fill-opacity="1" fill-rule="nonzero"/><path fill="#252a34" d="M 219.351562 121.484375 C 219.28125 121.769531 219.382812 122.042969 219.582031 122.09375 C 219.78125 122.144531 220 121.949219 220.070312 121.664062 C 220.140625 121.375 220.039062 121.101562 219.84375 121.050781 C 219.644531 121.003906 219.425781 121.195312 219.351562 121.484375 " fill-opacity="1" fill-rule="nonzero"/><path fill="#f5966a" d="M 220.328125 123.898438 C 220.328125 123.898438 220.433594 123.972656 220.527344 124.066406 L 220.609375 124.121094 L 220.695312 124.179688 L 220.773438 124.21875 L 220.851562 124.242188 L 220.941406 124.253906 L 221.042969 124.261719 C 221.113281 124.269531 221.175781 124.257812 221.246094 124.261719 C 221.320312 124.257812 221.390625 124.242188 221.4375 124.246094 L 221.515625 124.246094 L 221.488281 124.320312 C 221.460938 124.363281 221.4375 124.425781 221.375 124.484375 C 221.3125 124.539062 221.230469 124.613281 221.121094 124.644531 C 221.066406 124.660156 221.011719 124.691406 220.949219 124.683594 C 220.878906 124.683594 220.816406 124.691406 220.75 124.675781 C 220.683594 124.652344 220.621094 124.625 220.558594 124.59375 C 220.507812 124.554688 220.464844 124.503906 220.421875 124.460938 L 220.339844 124.316406 L 220.296875 124.179688 C 220.289062 124.007812 220.328125 123.898438 220.328125 123.898438 " fill-opacity="1" fill-rule="nonzero"/><path fill="#351f17" d="M 222.246094 120.996094 C 222.238281 121.144531 222.34375 121.269531 222.480469 121.28125 C 222.964844 121.328125 223.433594 121.445312 223.882812 121.632812 C 224.011719 121.6875 224.164062 121.625 224.226562 121.488281 C 224.289062 121.351562 224.226562 121.1875 224.078125 121.125 C 223.589844 120.917969 223.070312 120.792969 222.542969 120.742188 C 222.390625 120.726562 222.253906 120.84375 222.246094 120.996094 " fill-opacity="1" fill-rule="nonzero"/><path fill="#351f17" d="M 219.105469 120.210938 C 219.09375 120.359375 219.199219 120.488281 219.339844 120.5 C 219.824219 120.546875 220.292969 120.664062 220.742188 120.847656 C 220.871094 120.902344 221.023438 120.839844 221.085938 120.703125 C 221.148438 120.566406 221.082031 120.398438 220.941406 120.34375 C 220.453125 120.136719 219.933594 120.003906 219.402344 119.957031 C 219.246094 119.941406 219.117188 120.0625 219.105469 120.210938 " fill-opacity="1" fill-rule="nonzero"/><path fill="#f5937b" d="M 222.25 123.589844 C 222.171875 123.90625 222.535156 124.269531 223.066406 124.398438 C 223.59375 124.535156 224.089844 124.382812 224.167969 124.066406 C 224.246094 123.75 223.882812 123.386719 223.351562 123.257812 C 222.824219 123.125 222.328125 123.273438 222.25 123.589844 " fill-opacity="1" fill-rule="nonzero"/><path fill="#f5937b" d="M 218 122.53125 C 217.921875 122.84375 218.285156 123.207031 218.816406 123.339844 C 219.34375 123.472656 219.835938 123.324219 219.917969 123.007812 C 219.996094 122.691406 219.628906 122.328125 219.101562 122.195312 C 218.570312 122.0625 218.078125 122.210938 218 122.53125 " fill-opacity="1" fill-rule="nonzero"/><path fill="#ffffff" d="M 219.554688 125.28125 C 219.835938 126.390625 220.917969 126.445312 221.5 125.765625 L 219.554688 125.28125 " fill-opacity="1" fill-rule="nonzero"/><path fill="#f5966a" d="M 219.910156 126.625 L 220.410156 126.75 C 220.523438 126.777344 220.636719 126.710938 220.664062 126.597656 C 220.695312 126.484375 220.625 126.371094 220.511719 126.34375 L 220.011719 126.21875 C 219.898438 126.191406 219.785156 126.257812 219.757812 126.371094 C 219.730469 126.484375 219.796875 126.597656 219.910156 126.625 " fill-opacity="1" fill-rule="nonzero"/><path fill="#1b1e32" d="M 209.546875 133.910156 C 209.546875 133.910156 209.609375 134.753906 209.707031 135.925781 L 215.429688 137.351562 L 215.875 128.914062 L 211.710938 129.046875 C 211.710938 129.046875 209.292969 129.371094 209.28125 130.828125 L 209.546875 133.910156 " fill-opacity="1" fill-rule="nonzero"/><path fill="#262c49" d="M 213.445312 134.472656 L 214.289062 137.066406 L 215.429688 137.351562 L 215.875 128.914062 L 214.648438 128.953125 L 213.429688 133.144531 L 214.511719 134.097656 L 213.445312 134.472656 " fill-opacity="1" fill-rule="nonzero"/><path fill="#1b1e32" d="M 222.269531 139.058594 C 222.542969 137.941406 222.425781 137 222.425781 137 L 223.738281 134.265625 C 224.40625 132.972656 223.507812 132.21875 223.507812 132.21875 L 219.894531 130.140625 L 217.554688 137.882812 L 222.269531 139.058594 " fill-opacity="1" fill-rule="nonzero"/><path fill="#262c49" d="M 218.75 138.179688 L 220.203125 136.386719 L 219.441406 135.554688 L 220.839844 135.222656 L 220.957031 130.753906 L 219.894531 130.140625 L 217.554688 137.882812 L 218.75 138.179688 " fill-opacity="1" fill-rule="nonzero"/><path fill="#1b1e32" d="M 209.765625 135.941406 L 211.570312 135.015625 C 211.570312 135.015625 215.09375 132.03125 212.375 129.417969 C 212.375 129.417969 211.179688 129.113281 209.609375 129.996094 L 206.679688 135.171875 L 209.765625 135.941406 " fill-opacity="1" fill-rule="nonzero"/><path fill="#3463a3" d="M 143.839844 272.441406 L 143.65625 250.996094 L 197.695312 226.847656 L 243.539062 238.289062 L 243.824219 271.574219 L 143.839844 272.441406 M 190.136719 144.148438 L 186.542969 136.109375 L 192.15625 136.0625 L 190.136719 144.148438 " fill-opacity="1" fill-rule="nonzero"/><path fill="#2b5186" d="M 143.65625 250.996094 L 143.621094 247.046875 L 192.007812 225.429688 L 197.695312 226.847656 L 143.65625 250.996094 M 188.714844 149.839844 L 182.589844 136.144531 L 186.542969 136.109375 L 190.136719 144.148438 L 188.714844 149.839844 " fill-opacity="1" fill-rule="nonzero"/><path fill="#c2bdb5" d="M 143.621094 247.046875 L 143.539062 237.589844 L 178.367188 222.027344 L 192.007812 225.429688 L 143.621094 247.046875 M 143.523438 235.523438 L 143.476562 230.300781 L 173.21875 217.011719 L 175.523438 217.585938 L 174.644531 221.097656 L 175.394531 221.285156 L 143.523438 235.523438 M 143.457031 228.234375 L 143.414062 223.011719 L 173.832031 209.417969 L 172.355469 215.324219 L 143.457031 228.234375 M 143.394531 220.945312 L 143.34375 215.214844 L 176.03125 200.609375 L 174.414062 207.085938 L 143.394531 220.945312 M 143.3125 211.28125 L 143.25 204.097656 L 148.441406 201.773438 L 147.671875 200.046875 L 143.230469 202.035156 L 143.183594 196.808594 L 161.042969 188.828125 L 160.269531 187.101562 L 143.167969 194.742188 L 143.125 189.515625 L 158.3125 182.730469 L 157.539062 181.003906 L 143.105469 187.453125 L 143.0625 182.230469 L 155.585938 176.632812 L 154.8125 174.902344 L 143.042969 180.164062 L 142.996094 174.9375 L 152.859375 170.53125 L 152.085938 168.804688 L 142.976562 172.875 L 142.910156 164.953125 L 167.558594 153.941406 L 166.085938 150.648438 L 142.875 161.019531 L 142.78125 149.984375 L 159.558594 142.488281 L 158.785156 140.761719 L 142.761719 147.917969 L 142.71875 142.695312 L 156.882812 136.367188 L 182.589844 136.144531 L 188.714844 149.839844 L 185.96875 160.835938 L 183.296875 154.859375 L 158.410156 165.980469 L 169.707031 191.238281 L 179.460938 186.878906 L 177.140625 196.164062 L 143.3125 211.28125 M 142.699219 140.632812 L 142.664062 136.492188 L 152.148438 136.410156 L 142.699219 140.632812 " fill-opacity="1" fill-rule="nonzero"/><path fill="#a7a39c" d="M 142.71875 142.695312 L 142.699219 140.632812 L 152.148438 136.410156 L 156.882812 136.367188 L 142.71875 142.695312 " fill-opacity="1" fill-rule="nonzero"/><path fill="#a7a39c" d="M 142.78125 149.984375 L 142.761719 147.917969 L 158.785156 140.761719 L 159.558594 142.488281 L 142.78125 149.984375 " fill-opacity="1" fill-rule="nonzero"/><path fill="#a7a39c" d="M 142.996094 174.9375 L 142.976562 172.875 L 152.085938 168.804688 L 152.859375 170.53125 L 142.996094 174.9375 " fill-opacity="1" fill-rule="nonzero"/><path fill="#a7a39c" d="M 143.0625 182.230469 L 143.042969 180.164062 L 154.8125 174.902344 L 155.585938 176.632812 L 143.0625 182.230469 " fill-opacity="1" fill-rule="nonzero"/><path fill="#a7a39c" d="M 143.125 189.515625 L 143.105469 187.453125 L 157.539062 181.003906 L 158.3125 182.730469 L 143.125 189.515625 " fill-opacity="1" fill-rule="nonzero"/><path fill="#a7a39c" d="M 143.183594 196.808594 L 143.167969 194.742188 L 160.269531 187.101562 L 161.042969 188.828125 L 143.183594 196.808594 " fill-opacity="1" fill-rule="nonzero"/><path fill="#a7a39c" d="M 143.25 204.097656 L 143.230469 202.035156 L 147.671875 200.046875 L 148.441406 201.773438 L 143.25 204.097656 " fill-opacity="1" fill-rule="nonzero"/><path fill="#cf9c59" d="M 169.707031 191.238281 L 158.410156 165.980469 L 183.296875 154.859375 L 185.96875 160.835938 L 179.460938 186.878906 L 169.707031 191.238281 " fill-opacity="1" fill-rule="nonzero"/><path fill="#ca5b33" d="M 143.34375 215.214844 L 143.3125 211.28125 L 177.140625 196.164062 L 176.03125 200.609375 L 143.34375 215.214844 " fill-opacity="1" fill-rule="nonzero"/><path fill="#8cb666" d="M 142.910156 164.953125 L 142.875 161.019531 L 166.085938 150.648438 L 167.558594 153.941406 L 142.910156 164.953125 " fill-opacity="1" fill-rule="nonzero"/><path fill="#a7a39c" d="M 143.414062 223.011719 L 143.394531 220.945312 L 174.414062 207.085938 L 173.832031 209.417969 L 143.414062 223.011719 " fill-opacity="1" fill-rule="nonzero"/><path fill="#a7a39c" d="M 143.476562 230.300781 L 143.457031 228.234375 L 172.355469 215.324219 L 172.007812 216.710938 L 173.21875 217.011719 L 143.476562 230.300781 " fill-opacity="1" fill-rule="nonzero"/><path fill="#a7a39c" d="M 143.539062 237.589844 L 143.523438 235.523438 L 175.394531 221.285156 L 178.367188 222.027344 L 143.539062 237.589844 " fill-opacity="1" fill-rule="nonzero"/><path fill="#2b5186" d="M 243.539062 238.289062 L 197.695312 226.847656 L 203.054688 224.457031 L 243.503906 234.546875 L 243.539062 238.289062 " fill-opacity="1" fill-rule="nonzero"/><path fill="#23436f" d="M 197.695312 226.847656 L 192.007812 225.429688 L 197.363281 223.035156 L 203.054688 224.457031 L 197.695312 226.847656 " fill-opacity="1" fill-rule="nonzero"/><path fill="#a19c96" d="M 192.007812 225.429688 L 178.367188 222.027344 L 183.726562 219.632812 L 197.363281 223.035156 L 192.007812 225.429688 M 175.394531 221.285156 L 174.644531 221.097656 L 175.523438 217.585938 L 180.75 218.890625 L 175.394531 221.285156 " fill-opacity="1" fill-rule="nonzero"/><path fill="#8c8882" d="M 178.367188 222.027344 L 175.394531 221.285156 L 180.75 218.890625 L 183.726562 219.632812 L 178.367188 222.027344 " fill-opacity="1" fill-rule="nonzero"/><path fill="#c2bdb5" d="M 243.503906 234.546875 L 203.054688 224.457031 L 197.363281 223.035156 L 183.726562 219.632812 L 180.75 218.890625 L 175.523438 217.585938 L 173.21875 217.011719 L 172.007812 216.710938 L 172.355469 215.324219 L 173.832031 209.417969 L 174.414062 207.085938 L 176.03125 200.609375 L 177.140625 196.164062 L 179.460938 186.878906 L 185.96875 160.835938 L 188.714844 149.839844 L 190.136719 144.148438 L 192.15625 136.0625 L 209.652344 135.910156 L 209.707031 135.925781 L 214.289062 137.066406 L 217.554688 137.882812 L 218.75 138.179688 L 218.765625 138.1875 L 229.703125 140.914062 L 230.996094 135.726562 L 242.101562 135.628906 L 242.648438 135.765625 L 242.695312 140.710938 L 234.160156 138.585938 L 233.699219 140.417969 L 242.710938 142.667969 L 242.800781 153.113281 L 211.484375 145.296875 L 210.609375 148.796875 L 242.832031 156.835938 L 242.898438 164.335938 L 195.277344 152.453125 L 194.816406 154.285156 L 242.914062 166.289062 L 242.957031 171.234375 L 193.65625 158.933594 L 193.199219 160.769531 L 242.976562 173.191406 L 243.078125 185.289062 C 240.425781 189.445312 238.75 194.285156 238.386719 199.484375 L 200.320312 189.988281 L 199.445312 193.488281 L 238.347656 203.191406 C 238.445312 205.117188 238.722656 206.996094 239.15625 208.808594 L 187.359375 195.882812 L 186.902344 197.71875 L 239.746094 210.90625 C 240.363281 212.839844 241.167969 214.691406 242.144531 216.441406 L 185.742188 202.367188 L 185.28125 204.199219 L 243.371094 218.695312 L 243.410156 223.640625 L 184.121094 208.847656 L 183.664062 210.679688 L 243.429688 225.59375 L 243.503906 234.546875 M 188.800781 178.378906 L 188.339844 180.210938 L 222.3125 188.691406 L 222.769531 186.855469 L 188.800781 178.378906 M 190.417969 171.894531 L 189.960938 173.734375 L 240.21875 186.273438 L 240.679688 184.4375 L 190.417969 171.894531 M 192.039062 165.414062 L 191.578125 167.25 L 241.839844 179.789062 L 242.300781 177.957031 L 192.039062 165.414062 " fill-opacity="1" fill-rule="nonzero"/><path fill="#66a2c5" d="M 229.703125 140.914062 L 218.765625 138.1875 L 220.941406 138.726562 L 223.535156 139.375 L 223.847656 135.789062 L 230.996094 135.726562 L 229.703125 140.914062 M 217.554688 137.882812 L 215.429688 137.351562 L 217.554688 137.882812 " fill-opacity="1" fill-rule="nonzero"/><path fill="#a7a39c" d="M 242.648438 135.765625 L 242.101562 135.628906 L 242.648438 135.625 L 242.648438 135.765625 " fill-opacity="1" fill-rule="nonzero"/><path fill="#a7a39c" d="M 242.710938 142.667969 L 233.699219 140.417969 L 234.160156 138.585938 L 242.695312 140.710938 L 242.710938 142.667969 " fill-opacity="1" fill-rule="nonzero"/><path fill="#a7a39c" d="M 242.914062 166.289062 L 194.816406 154.285156 L 195.277344 152.453125 L 242.898438 164.335938 L 242.914062 166.289062 " fill-opacity="1" fill-rule="nonzero"/><path fill="#a7a39c" d="M 242.976562 173.191406 L 193.199219 160.769531 L 193.65625 158.933594 L 242.957031 171.234375 L 242.976562 173.191406 " fill-opacity="1" fill-rule="nonzero"/><path fill="#a7a39c" d="M 241.839844 179.789062 L 191.578125 167.25 L 192.039062 165.414062 L 242.300781 177.957031 L 241.839844 179.789062 " fill-opacity="1" fill-rule="nonzero"/><path fill="#a7a39c" d="M 240.21875 186.273438 L 189.960938 173.734375 L 190.417969 171.894531 L 240.679688 184.4375 L 240.21875 186.273438 " fill-opacity="1" fill-rule="nonzero"/><path fill="#a7a39c" d="M 222.3125 188.691406 L 188.339844 180.210938 L 188.800781 178.378906 L 222.769531 186.855469 L 222.3125 188.691406 " fill-opacity="1" fill-rule="nonzero"/><path fill="#ca5b33" d="M 238.347656 203.191406 L 199.445312 193.488281 L 200.320312 189.988281 L 238.386719 199.484375 C 238.335938 200.199219 238.308594 200.917969 238.308594 201.644531 C 238.308594 202.167969 238.320312 202.679688 238.347656 203.191406 " fill-opacity="1" fill-rule="nonzero"/><path fill="#8cb666" d="M 242.832031 156.835938 L 210.609375 148.796875 L 211.484375 145.296875 L 242.800781 153.113281 L 242.832031 156.835938 " fill-opacity="1" fill-rule="nonzero"/><path fill="#a7a39c" d="M 239.746094 210.90625 L 186.902344 197.71875 L 187.359375 195.882812 L 239.15625 208.808594 C 239.332031 209.515625 239.527344 210.21875 239.746094 210.90625 " fill-opacity="1" fill-rule="nonzero"/><path fill="#a7a39c" d="M 243.371094 218.695312 L 185.28125 204.199219 L 185.742188 202.367188 L 242.144531 216.441406 C 242.523438 217.125 242.933594 217.796875 243.367188 218.445312 L 243.371094 218.695312 " fill-opacity="1" fill-rule="nonzero"/><path fill="#a7a39c" d="M 243.429688 225.59375 L 183.664062 210.679688 L 184.121094 208.847656 L 243.410156 223.640625 L 243.429688 225.59375 " fill-opacity="1" fill-rule="nonzero"/><path fill="#17192a" d="M 223.535156 139.375 L 222.269531 139.058594 C 222.542969 137.941406 222.425781 137 222.425781 137 L 223.003906 135.796875 L 223.847656 135.789062 L 223.535156 139.375 " fill-opacity="1" fill-rule="nonzero"/><path fill="#c73562" d="M 222.066406 139.007812 L 220.941406 138.726562 L 222.066406 139.007812 M 217.554688 137.882812 L 215.429688 137.351562 L 215.507812 135.859375 L 218.175781 135.835938 L 217.554688 137.882812 " fill-opacity="1" fill-rule="nonzero"/><path fill="#17192a" d="M 214.289062 137.066406 L 209.707031 135.925781 L 209.765625 135.941406 L 209.824219 135.910156 L 213.898438 135.875 L 214.289062 137.066406 " fill-opacity="1" fill-rule="nonzero"/><path fill="#20253d" d="M 215.429688 137.351562 L 214.289062 137.066406 L 213.898438 135.875 L 215.507812 135.859375 L 215.429688 137.351562 " fill-opacity="1" fill-rule="nonzero"/><path fill="#17192a" d="M 222.269531 139.058594 L 220.941406 138.726562 L 218.765625 138.1875 L 218.75 138.179688 L 220.203125 136.386719 L 219.6875 135.824219 L 223.003906 135.796875 L 222.425781 137 C 222.425781 137 222.542969 137.941406 222.269531 139.058594 " fill-opacity="1" fill-rule="nonzero"/><path fill="#20253d" d="M 218.75 138.179688 L 217.554688 137.882812 L 218.175781 135.835938 L 219.6875 135.824219 L 220.203125 136.386719 L 218.75 138.179688 " fill-opacity="1" fill-rule="nonzero"/><path fill="#17192a" d="M 209.765625 135.941406 L 209.707031 135.925781 L 209.652344 135.910156 L 209.824219 135.910156 L 209.765625 135.941406 " fill-opacity="1" fill-rule="nonzero"/><path fill="#faf7eb" d="M 240.171875 267.984375 L 140.1875 268.851562 L 139.011719 132.902344 L 238.996094 132.039062 L 240.171875 267.984375 " fill-opacity="1" fill-rule="nonzero"/><path fill="#7cc5ee" d="M 177.027344 181.023438 L 146.949219 181.285156 L 146.664062 148.148438 L 176.742188 147.890625 L 177.027344 181.023438 " fill-opacity="1" fill-rule="nonzero"/><path fill="#fabe6d" d="M 232.347656 152.375 L 180.546875 152.824219 L 180.527344 150.933594 L 232.332031 150.484375 L 232.347656 152.375 " fill-opacity="1" fill-rule="nonzero"/><path fill="#cac5bd" d="M 232.40625 159.054688 L 180.601562 159.503906 L 180.585938 157.609375 L 232.390625 157.164062 L 232.40625 159.054688 " fill-opacity="1" fill-rule="nonzero"/><path fill="#cac5bd" d="M 232.460938 165.734375 L 180.660156 166.183594 L 180.644531 164.292969 L 232.445312 163.84375 L 232.460938 165.734375 " fill-opacity="1" fill-rule="nonzero"/><path fill="#cac5bd" d="M 232.519531 172.417969 L 180.71875 172.863281 L 180.703125 170.972656 L 232.503906 170.523438 L 232.519531 172.417969 " fill-opacity="1" fill-rule="nonzero"/><path fill="#cac5bd" d="M 215.785156 179.238281 L 180.773438 179.542969 L 180.761719 177.652344 L 215.769531 177.347656 L 215.785156 179.238281 " fill-opacity="1" fill-rule="nonzero"/><path fill="#cac5bd" d="M 198.417969 202.261719 L 146.617188 202.707031 L 146.597656 200.816406 L 198.402344 200.367188 L 198.417969 202.261719 " fill-opacity="1" fill-rule="nonzero"/><path fill="#cac5bd" d="M 198.472656 208.941406 L 146.671875 209.390625 L 146.65625 207.496094 L 198.457031 207.050781 L 198.472656 208.941406 " fill-opacity="1" fill-rule="nonzero"/><path fill="#cac5bd" d="M 198.53125 215.617188 L 146.730469 216.066406 L 146.714844 214.179688 L 198.515625 213.730469 L 198.53125 215.617188 " fill-opacity="1" fill-rule="nonzero"/><path fill="#cac5bd" d="M 198.589844 222.300781 L 146.789062 222.746094 L 146.773438 220.855469 L 198.574219 220.410156 L 198.589844 222.300781 " fill-opacity="1" fill-rule="nonzero"/><path fill="#cac5bd" d="M 181.859375 229.125 L 146.847656 229.429688 L 146.832031 227.539062 L 181.84375 227.234375 L 181.859375 229.125 " fill-opacity="1" fill-rule="nonzero"/><path fill="#fabe6d" d="M 232.824219 227.738281 L 205.566406 227.972656 L 205.328125 200.308594 L 232.585938 200.070312 L 232.824219 227.738281 " fill-opacity="1" fill-rule="nonzero"/><path fill="#73d1e6" d="M 218.101562 143.269531 L 160.097656 143.773438 L 160.066406 140.167969 L 218.070312 139.664062 L 218.101562 143.269531 " fill-opacity="1" fill-rule="nonzero"/><path fill="#f46f3f" d="M 218.929688 238.996094 L 160.925781 239.496094 L 160.894531 235.890625 L 218.902344 235.386719 L 218.929688 238.996094 " fill-opacity="1" fill-rule="nonzero"/><path fill="#aadd7c" d="M 218.535156 192.933594 L 160.527344 193.4375 L 160.496094 189.832031 L 218.503906 189.328125 L 218.535156 192.933594 " fill-opacity="1" fill-rule="nonzero"/><path fill="#cac5bd" d="M 230.140625 246.039062 L 149.84375 246.738281 L 149.828125 244.84375 L 230.125 244.148438 L 230.140625 246.039062 " fill-opacity="1" fill-rule="nonzero"/><path fill="#cac5bd" d="M 230.199219 252.722656 L 149.902344 253.414062 L 149.882812 251.523438 L 230.179688 250.828125 L 230.199219 252.722656 " fill-opacity="1" fill-rule="nonzero"/><path fill="#cac5bd" d="M 230.253906 259.402344 L 149.957031 260.097656 L 149.941406 258.203125 L 230.238281 257.511719 L 230.253906 259.402344 " fill-opacity="1" fill-rule="nonzero"/><path fill="#1b1e24" d="M 156.609375 181.203125 L 157.433594 178.726562 C 158.566406 174.003906 156.59375 172.515625 156.59375 172.515625 C 152.976562 171.539062 152.265625 174.636719 152.265625 174.636719 L 151.269531 181.246094 L 156.609375 181.203125 " fill-opacity="1" fill-rule="nonzero"/><path fill="#96d7f3" d="M 163.890625 172.226562 L 158.398438 172.273438 L 158.375 169.539062 L 163.867188 169.492188 L 163.890625 172.226562 " fill-opacity="1" fill-rule="nonzero"/><path fill="#f7ac80" d="M 163.265625 171.820312 L 159.054688 171.859375 L 159.003906 166.019531 L 163.214844 165.984375 L 163.265625 171.820312 " fill-opacity="1" fill-rule="nonzero"/><path fill="#f5966a" d="M 163.234375 168.695312 L 163.214844 165.984375 L 159.003906 166.019531 L 159.035156 169.421875 C 160.671875 169.632812 162.144531 169.460938 163.234375 168.695312 " fill-opacity="1" fill-rule="nonzero"/><path fill="#f7ac80" d="M 168.820312 173.914062 C 168.371094 172.464844 166.890625 171.90625 166.890625 171.90625 L 163 170.503906 L 159.296875 170.539062 L 155.433594 172.003906 C 155.433594 172.003906 153.816406 172.449219 152.800781 174.050781 L 168.820312 173.914062 " fill-opacity="1" fill-rule="nonzero"/><path fill="#bfdae8" d="M 152.867188 181.234375 L 168.972656 181.09375 L 169.050781 179.730469 L 169.015625 175.910156 C 168.992188 173.046875 168.070312 172.128906 168.070312 172.128906 L 165.171875 171.199219 L 160.496094 171.042969 L 157.230469 171.269531 L 154.789062 172.070312 C 154.789062 172.070312 152.503906 172.933594 152.515625 174.347656 L 152.863281 181.183594 L 152.867188 181.234375 " fill-opacity="1" fill-rule="nonzero"/><path fill="#814736" d="M 154.640625 155.320312 C 154.640625 155.320312 154.511719 157.023438 155.839844 158.640625 L 157.308594 155.625 L 154.640625 155.320312 " fill-opacity="1" fill-rule="nonzero"/><path fill="#f7ac80" d="M 159.039062 168.203125 C 160.0625 168.257812 161.386719 167.746094 161.386719 167.746094 C 164.058594 166.917969 164.304688 166.582031 164.613281 165.171875 C 164.71875 164.675781 166.109375 158.195312 166.109375 158.195312 C 165.941406 154.578125 161.460938 154.28125 160.878906 154.265625 C 160.304688 154.210938 156.082031 153.4375 155.503906 157.015625 C 155.503906 157.015625 155.152344 161.914062 156.511719 166.316406 C 157.082031 167.554688 157.414062 167.78125 157.414062 167.78125 C 157.414062 167.78125 158.070312 168.253906 159.039062 168.203125 " fill-opacity="1" fill-rule="nonzero"/><path fill="#6e3c2d" d="M 165.375 155.226562 L 162.660156 156.953125 C 163.140625 157.621094 163.339844 158.03125 163.339844 158.03125 C 163.339844 158.03125 163.539062 160.796875 163.847656 162.851562 L 164.558594 162.851562 C 164.558594 162.851562 164.558594 161.761719 165.078125 161.597656 L 164.921875 162.941406 C 164.921875 162.941406 167.042969 160.167969 166.375 156.316406 C 166.375 156.316406 166.203125 155.21875 165.375 155.226562 " fill-opacity="1" fill-rule="nonzero"/><path fill="#f7ac80" d="M 164.308594 163.519531 C 164.402344 163.640625 164.558594 163.710938 164.808594 163.707031 C 165.34375 163.691406 165.769531 163.167969 165.96875 162.714844 C 166.398438 161.714844 165.898438 161.425781 165.898438 161.425781 C 164.792969 160.75 164.351562 162.199219 164.347656 162.210938 C 164.234375 162.59375 164.058594 163.214844 164.308594 163.519531 " fill-opacity="1" fill-rule="nonzero"/><path fill="#f5966a" d="M 158.566406 162.609375 C 158.566406 162.609375 158.710938 162.660156 158.847656 162.742188 L 158.960938 162.785156 L 159.074219 162.820312 L 159.179688 162.847656 L 159.277344 162.847656 L 159.382812 162.835938 L 159.5 162.8125 C 159.585938 162.804688 159.65625 162.769531 159.742188 162.75 C 159.820312 162.730469 159.902344 162.691406 159.957031 162.675781 C 160.011719 162.660156 160.050781 162.65625 160.050781 162.65625 C 160.050781 162.65625 160.046875 162.691406 160.035156 162.75 C 160.019531 162.804688 160.007812 162.886719 159.957031 162.96875 C 159.902344 163.054688 159.828125 163.167969 159.707031 163.234375 C 159.648438 163.269531 159.597656 163.324219 159.519531 163.335938 C 159.441406 163.355469 159.367188 163.378906 159.285156 163.382812 C 159.207031 163.371094 159.121094 163.359375 159.042969 163.34375 C 158.972656 163.316406 158.90625 163.269531 158.84375 163.234375 C 158.773438 163.203125 158.746094 163.136719 158.707031 163.089844 L 158.617188 162.945312 C 158.550781 162.746094 158.566406 162.609375 158.566406 162.609375 " fill-opacity="1" fill-rule="nonzero"/><path fill="#814736" d="M 159.996094 159.523438 C 160.027344 159.699219 160.1875 159.8125 160.351562 159.789062 C 160.925781 159.695312 161.507812 159.691406 162.082031 159.773438 C 162.246094 159.796875 162.40625 159.679688 162.4375 159.5 C 162.46875 159.324219 162.34375 159.152344 162.160156 159.125 C 161.527344 159.035156 160.890625 159.039062 160.261719 159.140625 C 160.082031 159.167969 159.957031 159.347656 159.996094 159.523438 " fill-opacity="1" fill-rule="nonzero"/><path fill="#814736" d="M 156.121094 159.558594 C 156.15625 159.734375 156.316406 159.847656 156.480469 159.820312 C 157.054688 159.726562 157.636719 159.722656 158.210938 159.804688 C 158.375 159.828125 158.53125 159.714844 158.566406 159.535156 C 158.59375 159.359375 158.472656 159.183594 158.289062 159.15625 C 157.660156 159.066406 157.019531 159.074219 156.390625 159.175781 C 156.207031 159.203125 156.085938 159.378906 156.121094 159.558594 " fill-opacity="1" fill-rule="nonzero"/><path fill="#724230" d="M 157.761719 160.703125 C 157.765625 160.996094 157.601562 161.238281 157.398438 161.242188 C 157.195312 161.246094 157.027344 161.003906 157.023438 160.707031 C 157.023438 160.410156 157.183594 160.167969 157.386719 160.167969 C 157.59375 160.164062 157.761719 160.40625 157.761719 160.703125 " fill-opacity="1" fill-rule="nonzero"/><path fill="#724230" d="M 161.699219 160.667969 C 161.699219 160.964844 161.535156 161.203125 161.332031 161.207031 C 161.128906 161.210938 160.960938 160.96875 160.960938 160.675781 C 160.957031 160.378906 161.117188 160.136719 161.324219 160.132812 C 161.527344 160.132812 161.695312 160.371094 161.699219 160.667969 " fill-opacity="1" fill-rule="nonzero"/><path fill="#d82930" d="M 160.023438 173.824219 L 159.089844 172.386719 L 159.425781 171.269531 L 161.429688 171.234375 L 161.792969 172.347656 L 160.902344 173.8125 L 160.023438 173.824219 " fill-opacity="1" fill-rule="nonzero"/><path fill="#c0232a" d="M 161.636719 181.15625 L 160.902344 173.8125 L 160.023438 173.824219 L 159.410156 181.175781 L 161.636719 181.15625 " fill-opacity="1" fill-rule="nonzero"/><path fill="#242932" d="M 169.175781 181.089844 L 169.332031 175.972656 C 169.308594 173.109375 168.070312 172.128906 168.070312 172.128906 L 163.757812 170.714844 L 161.515625 181.15625 L 169.175781 181.089844 " fill-opacity="1" fill-rule="nonzero"/><path fill="#2a313c" d="M 163.039062 181.144531 L 164.0625 178.632812 L 163.167969 177.4375 L 164.703125 177.515625 C 166.578125 173.210938 165.726562 171.3125 165.726562 171.3125 L 163.757812 170.714844 L 161.515625 181.15625 L 163.039062 181.144531 " fill-opacity="1" fill-rule="nonzero"/><path fill="#242932" d="M 152.515625 181.238281 L 158.160156 181.1875 L 157.546875 171.070312 L 154.789062 172.070312 C 154.789062 172.070312 152.515625 172.976562 152.351562 174.375 L 152.515625 181.1875 L 152.515625 181.238281 " fill-opacity="1" fill-rule="nonzero"/><path fill="#2a313c" d="M 156.917969 176.96875 L 155.898438 178.113281 L 156.925781 181.199219 L 158.160156 181.1875 L 157.546875 171.070312 L 155.578125 171.789062 C 155.578125 171.789062 154.617188 173.472656 155.355469 176.984375 L 156.917969 176.96875 " fill-opacity="1" fill-rule="nonzero"/><path fill="#c9edf2" d="M 163.902344 169.492188 L 165.726562 171.3125 L 161.980469 173.671875 L 160.496094 171.042969 L 163.902344 169.492188 " fill-opacity="1" fill-rule="nonzero"/><path fill="#c9edf2" d="M 158.375 169.539062 L 156.582031 171.261719 L 159.035156 173.4375 L 160.496094 171.042969 L 158.375 169.539062 " fill-opacity="1" fill-rule="nonzero"/><path fill="#1b1e24" d="M 166.6875 181.113281 L 172.710938 181.0625 L 171.863281 175.835938 C 171.863281 175.835938 171.484375 172.84375 168.070312 172.128906 C 168.070312 172.128906 166.710938 172.476562 166.003906 174.195312 C 166.003906 174.195312 165.386719 175.488281 166.144531 178.769531 L 166.6875 181.113281 " fill-opacity="1" fill-rule="nonzero"/><path fill="#814736" d="M 162.992188 157.035156 C 162.992188 157.035156 155.335938 158.042969 154.640625 155.320312 C 154.640625 155.320312 154.273438 152.804688 156.046875 151.726562 C 156.046875 151.726562 155.785156 152.722656 156.425781 153 C 156.425781 153 156.578125 150.730469 159.429688 150.355469 C 159.429688 150.355469 159.394531 152.265625 160.421875 152.398438 C 160.421875 152.398438 160.542969 150.910156 163.078125 150.605469 C 163.078125 150.605469 162.34375 152.027344 164.488281 152.363281 C 164.488281 152.363281 166.183594 153.367188 165.800781 155.222656 L 162.992188 157.035156 " fill-opacity="1" fill-rule="nonzero"/><path fill="#f5966a" d="M 158.304688 165.128906 L 158.207031 165.007812 L 158.207031 165.167969 L 158.304688 165.128906 L 158.207031 165.007812 L 158.207031 165.167969 L 158.207031 165.050781 L 158.164062 165.160156 L 158.207031 165.167969 L 158.207031 165.050781 L 158.164062 165.160156 L 158.171875 165.160156 C 158.191406 165.167969 158.675781 165.351562 159.316406 165.351562 C 159.636719 165.351562 160 165.304688 160.359375 165.15625 L 160.363281 165.15625 L 160.34375 165.109375 L 160.34375 165.160156 L 160.363281 165.15625 L 160.34375 165.109375 L 160.34375 165.160156 L 160.34375 164.992188 L 160.21875 165.097656 C 160.265625 165.152344 160.332031 165.160156 160.34375 165.160156 L 160.34375 164.992188 L 160.21875 165.097656 C 160.324219 165.222656 160.511719 165.238281 160.632812 165.132812 C 160.757812 165.023438 160.773438 164.839844 160.667969 164.714844 C 160.566406 164.597656 160.425781 164.570312 160.34375 164.570312 C 160.21875 164.570312 160.152344 164.605469 160.132812 164.613281 L 160.25 164.882812 L 160.136719 164.609375 C 159.867188 164.71875 159.578125 164.761719 159.316406 164.761719 C 159.050781 164.761719 158.8125 164.71875 158.640625 164.679688 C 158.554688 164.664062 158.488281 164.640625 158.441406 164.628906 L 158.390625 164.613281 L 158.375 164.609375 L 158.273438 164.882812 L 158.382812 164.609375 C 158.324219 164.585938 158.261719 164.574219 158.207031 164.578125 C 158.050781 164.578125 157.964844 164.644531 157.9375 164.667969 C 157.808594 164.769531 157.789062 164.953125 157.890625 165.082031 C 157.992188 165.210938 158.175781 165.230469 158.304688 165.128906 " fill-opacity="1" fill-rule="nonzero"/><path fill="#f5966a" d="M 158.667969 165.777344 C 158.679688 165.777344 158.929688 165.835938 159.21875 165.835938 C 159.375 165.835938 159.539062 165.824219 159.707031 165.75 C 159.855469 165.679688 159.917969 165.503906 159.851562 165.355469 C 159.78125 165.210938 159.605469 165.144531 159.457031 165.214844 C 159.425781 165.230469 159.328125 165.25 159.21875 165.246094 C 159.117188 165.246094 159.007812 165.234375 158.925781 165.222656 L 158.824219 165.207031 L 158.792969 165.199219 C 158.632812 165.164062 158.476562 165.265625 158.441406 165.425781 C 158.40625 165.585938 158.507812 165.742188 158.667969 165.777344 " fill-opacity="1" fill-rule="nonzero"/><path fill="#51ade5" d="M 265.097656 241.746094 L 272.410156 241.746094 L 272.410156 226.859375 L 265.097656 226.859375 Z M 265.097656 241.746094 " fill-opacity="1" fill-rule="nonzero"/><path fill="#2c3254" d="M 268.753906 226.859375 C 254.824219 226.859375 243.527344 215.574219 243.527344 201.644531 C 243.527344 187.722656 254.824219 176.433594 268.753906 176.433594 C 282.6875 176.433594 293.984375 187.722656 293.984375 201.644531 C 293.984375 215.574219 282.6875 226.859375 268.753906 226.859375 M 268.753906 171.21875 C 251.941406 171.21875 238.308594 184.84375 238.308594 201.644531 C 238.308594 218.453125 251.941406 232.074219 268.753906 232.074219 C 285.570312 232.074219 299.203125 218.453125 299.203125 201.644531 C 299.203125 184.84375 285.570312 171.21875 268.753906 171.21875 " fill-opacity="1" fill-rule="nonzero"/><path fill="#bbd3df" d="M 269.171875 226.859375 C 269.175781 226.855469 269.183594 226.855469 269.1875 226.855469 C 269.183594 226.855469 269.175781 226.855469 269.171875 226.859375 " fill-opacity="1" fill-rule="nonzero"/><path fill="#4488cf" d="M 276.574219 225.625 C 280.816406 224.246094 284.5625 221.769531 287.488281 218.535156 C 285.066406 215.988281 282.65625 213.425781 280.265625 210.851562 L 286.933594 184.160156 C 291.300781 188.695312 293.984375 194.855469 293.984375 201.644531 C 293.984375 212.84375 286.679688 222.339844 276.574219 225.625 " fill-opacity="1" fill-rule="nonzero"/><path fill="#3c76b5" d="M 272.605469 226.566406 C 273.964844 226.359375 275.289062 226.042969 276.574219 225.625 C 275.292969 226.042969 273.964844 226.359375 272.605469 226.566406 M 280.265625 210.851562 C 279.28125 209.792969 278.304688 208.734375 277.324219 207.671875 L 283.875 181.460938 C 284.964844 182.277344 285.988281 183.183594 286.933594 184.160156 L 280.265625 210.851562 " fill-opacity="1" fill-rule="nonzero"/><path fill="#bbd3df" d="M 269.210938 226.855469 C 270.363281 226.835938 271.496094 226.738281 272.605469 226.566406 C 271.496094 226.738281 270.363281 226.835938 269.210938 226.855469 M 277.324219 207.671875 C 274.863281 205 272.410156 202.308594 269.972656 199.609375 L 272 200.113281 L 277.523438 178 C 279.816406 178.847656 281.953125 180.023438 283.875 181.460938 L 277.324219 207.671875 M 243.542969 200.773438 C 243.679688 196.816406 244.722656 193.09375 246.480469 189.804688 L 246.480469 189.808594 C 244.722656 193.09375 243.679688 196.820312 243.542969 200.773438 " fill-opacity="1" fill-rule="nonzero"/><path fill="#c8ba96" d="M 272 200.113281 L 269.972656 199.609375 C 264.523438 193.574219 259.128906 187.480469 253.765625 181.371094 C 250.75 183.597656 248.253906 186.480469 246.480469 189.808594 L 246.480469 189.804688 C 250.722656 181.847656 259.105469 176.433594 268.753906 176.433594 C 271.839844 176.433594 274.792969 176.988281 277.523438 178 L 272 200.113281 " fill-opacity="1" fill-rule="nonzero"/><path fill="#c7876e" d="M 243.539062 200.941406 C 243.539062 200.886719 243.539062 200.828125 243.542969 200.773438 C 243.539062 200.828125 243.539062 200.886719 243.539062 200.941406 " fill-opacity="1" fill-rule="nonzero"/><path fill="#375078" d="M 269.210938 226.855469 C 270.363281 226.835938 271.496094 226.738281 272.605469 226.566406 C 273.964844 226.359375 275.292969 226.042969 276.574219 225.625 C 286.679688 222.339844 293.984375 212.84375 293.984375 201.644531 C 293.984375 215.421875 282.933594 226.613281 269.210938 226.855469 " fill-opacity="1" fill-rule="nonzero"/><path fill="#c7876e" d="M 243.527344 201.617188 C 243.527344 201.613281 243.527344 201.605469 243.527344 201.601562 C 243.527344 201.605469 243.527344 201.613281 243.527344 201.617188 M 243.527344 201.59375 C 243.527344 201.589844 243.527344 201.582031 243.527344 201.578125 C 243.527344 201.582031 243.527344 201.589844 243.527344 201.59375 M 243.527344 201.570312 C 243.527344 201.566406 243.527344 201.558594 243.527344 201.554688 C 243.527344 201.558594 243.527344 201.566406 243.527344 201.570312 M 243.527344 201.550781 C 243.527344 201.539062 243.527344 201.53125 243.527344 201.527344 C 243.527344 201.53125 243.527344 201.539062 243.527344 201.550781 M 243.527344 201.527344 C 243.527344 201.515625 243.527344 201.511719 243.527344 201.5 C 243.527344 201.511719 243.527344 201.515625 243.527344 201.527344 M 243.527344 201.5 C 243.527344 201.492188 243.527344 201.484375 243.527344 201.480469 C 243.527344 201.488281 243.527344 201.492188 243.527344 201.5 M 243.527344 201.472656 C 243.527344 201.464844 243.527344 201.460938 243.527344 201.457031 C 243.527344 201.460938 243.527344 201.464844 243.527344 201.472656 M 243.527344 201.449219 C 243.527344 201.441406 243.527344 201.4375 243.527344 201.429688 C 243.527344 201.4375 243.527344 201.441406 243.527344 201.449219 M 243.527344 201.425781 C 243.527344 201.421875 243.527344 201.414062 243.527344 201.40625 C 243.527344 201.414062 243.527344 201.421875 243.527344 201.425781 M 243.527344 201.402344 C 243.527344 201.398438 243.527344 201.386719 243.527344 201.382812 C 243.527344 201.386719 243.527344 201.394531 243.527344 201.402344 M 243.527344 201.375 C 243.527344 201.371094 243.527344 201.363281 243.53125 201.359375 C 243.527344 201.363281 243.527344 201.371094 243.527344 201.375 M 243.53125 201.351562 C 243.53125 201.347656 243.53125 201.339844 243.53125 201.335938 C 243.53125 201.339844 243.53125 201.347656 243.53125 201.351562 M 243.53125 201.328125 C 243.53125 201.324219 243.53125 201.316406 243.53125 201.308594 C 243.53125 201.316406 243.53125 201.320312 243.53125 201.328125 M 243.53125 201.304688 C 243.53125 201.296875 243.53125 201.289062 243.53125 201.285156 C 243.53125 201.289062 243.53125 201.296875 243.53125 201.304688 M 243.53125 201.28125 C 243.53125 201.265625 243.53125 201.25 243.53125 201.234375 C 243.53125 201.25 243.53125 201.265625 243.53125 201.28125 M 243.53125 201.230469 C 243.53125 201.222656 243.53125 201.21875 243.53125 201.210938 C 243.53125 201.21875 243.53125 201.222656 243.53125 201.230469 M 243.53125 201.207031 C 243.53125 201.199219 243.53125 201.195312 243.53125 201.1875 C 243.53125 201.195312 243.53125 201.199219 243.53125 201.207031 M 243.53125 201.183594 C 243.53125 201.175781 243.53125 201.167969 243.53125 201.160156 C 243.53125 201.167969 243.53125 201.175781 243.53125 201.183594 M 243.53125 201.160156 C 243.53125 201.144531 243.53125 201.128906 243.53125 201.113281 C 243.53125 201.128906 243.53125 201.144531 243.53125 201.160156 M 243.53125 201.109375 C 243.53125 201.105469 243.53125 201.097656 243.53125 201.089844 C 243.53125 201.097656 243.53125 201.105469 243.53125 201.109375 M 243.53125 201.085938 C 243.53125 201.078125 243.535156 201.070312 243.535156 201.066406 C 243.535156 201.070312 243.53125 201.078125 243.53125 201.085938 M 243.535156 201.0625 C 243.535156 201.039062 243.535156 201.015625 243.535156 200.992188 C 243.535156 201.015625 243.535156 201.039062 243.535156 201.0625 M 243.535156 200.988281 C 243.535156 200.980469 243.539062 200.976562 243.539062 200.96875 C 243.539062 200.976562 243.535156 200.980469 243.535156 200.988281 M 243.539062 200.964844 C 243.539062 200.960938 243.539062 200.949219 243.539062 200.941406 C 243.539062 200.949219 243.539062 200.960938 243.539062 200.964844 " fill-opacity="1" fill-rule="nonzero"/><path fill="#375078" d="M 268.777344 226.859375 C 268.78125 226.859375 268.78125 226.859375 268.785156 226.859375 C 268.78125 226.859375 268.777344 226.859375 268.777344 226.859375 M 268.800781 226.859375 C 268.800781 226.859375 268.804688 226.859375 268.804688 226.859375 C 268.804688 226.859375 268.800781 226.859375 268.800781 226.859375 M 268.820312 226.859375 C 268.824219 226.859375 268.824219 226.859375 268.828125 226.859375 C 268.824219 226.859375 268.824219 226.859375 268.820312 226.859375 M 268.839844 226.859375 C 268.84375 226.859375 268.847656 226.859375 268.851562 226.859375 C 268.847656 226.859375 268.84375 226.859375 268.839844 226.859375 M 268.863281 226.859375 C 268.863281 226.859375 268.867188 226.859375 268.871094 226.859375 C 268.867188 226.859375 268.863281 226.859375 268.863281 226.859375 M 268.882812 226.859375 C 268.886719 226.859375 268.890625 226.859375 268.890625 226.859375 C 268.890625 226.859375 268.886719 226.859375 268.882812 226.859375 M 268.90625 226.859375 C 268.90625 226.859375 268.910156 226.859375 268.914062 226.859375 C 268.910156 226.859375 268.90625 226.859375 268.90625 226.859375 M 268.925781 226.859375 C 268.929688 226.859375 268.929688 226.859375 268.933594 226.859375 C 268.929688 226.859375 268.929688 226.859375 268.925781 226.859375 M 268.949219 226.859375 C 268.953125 226.859375 268.953125 226.859375 268.953125 226.859375 C 268.953125 226.859375 268.953125 226.859375 268.949219 226.859375 M 268.96875 226.859375 C 268.972656 226.859375 268.976562 226.859375 268.976562 226.859375 C 268.976562 226.859375 268.972656 226.859375 268.96875 226.859375 M 268.992188 226.859375 C 268.992188 226.859375 268.996094 226.859375 268.996094 226.859375 C 268.996094 226.859375 268.992188 226.859375 268.992188 226.859375 M 269.015625 226.859375 C 269.015625 226.859375 269.015625 226.859375 269.019531 226.859375 C 269.015625 226.859375 269.015625 226.859375 269.015625 226.859375 M 269.035156 226.859375 C 269.035156 226.859375 269.039062 226.859375 269.039062 226.859375 C 269.035156 226.859375 269.035156 226.859375 269.035156 226.859375 M 269.167969 226.859375 L 269.171875 226.859375 L 269.167969 226.859375 M 269.1875 226.855469 C 269.191406 226.855469 269.191406 226.855469 269.191406 226.855469 C 269.191406 226.855469 269.191406 226.855469 269.1875 226.855469 " fill-opacity="1" fill-rule="nonzero"/><path fill="#4893d6" d="M 276.574219 225.625 L 280.265625 210.851562 C 282.65625 213.425781 285.066406 215.988281 287.488281 218.535156 C 284.5625 221.769531 280.816406 224.246094 276.574219 225.625 " fill-opacity="1" fill-rule="nonzero"/><path fill="#4286c3" d="M 272.605469 226.566406 L 277.324219 207.671875 C 278.304688 208.734375 279.28125 209.792969 280.265625 210.851562 L 276.574219 225.625 C 275.289062 226.042969 273.964844 226.359375 272.605469 226.566406 " fill-opacity="1" fill-rule="nonzero"/><path fill="#9bc7e1" d="M 268.753906 226.859375 C 262.597656 226.859375 256.957031 224.65625 252.574219 220.992188 L 263.1875 223.640625 L 263.648438 221.804688 L 249.875 218.371094 C 248.304688 216.601562 246.980469 214.613281 245.957031 212.457031 L 264.808594 217.160156 L 265.269531 215.324219 L 245.042969 210.277344 C 244.378906 208.449219 243.917969 206.523438 243.691406 204.527344 L 255.726562 207.53125 L 256.601562 204.03125 L 243.542969 200.773438 C 243.679688 196.820312 244.722656 193.09375 246.480469 189.808594 L 245.550781 193.511719 L 269.972656 199.609375 C 272.410156 202.308594 274.863281 205 277.324219 207.671875 L 272.605469 226.566406 C 271.496094 226.738281 270.363281 226.835938 269.210938 226.855469 C 269.207031 226.855469 269.199219 226.855469 269.191406 226.855469 C 269.191406 226.855469 269.191406 226.855469 269.1875 226.855469 C 269.183594 226.855469 269.175781 226.855469 269.171875 226.859375 L 269.167969 226.859375 C 269.160156 226.859375 269.15625 226.859375 269.148438 226.859375 C 269.109375 226.859375 269.074219 226.859375 269.039062 226.859375 C 269.039062 226.859375 269.035156 226.859375 269.035156 226.859375 C 269.03125 226.859375 269.027344 226.859375 269.019531 226.859375 C 269.015625 226.859375 269.015625 226.859375 269.015625 226.859375 C 269.007812 226.859375 269.003906 226.859375 268.996094 226.859375 C 268.996094 226.859375 268.992188 226.859375 268.992188 226.859375 C 268.984375 226.859375 268.980469 226.859375 268.976562 226.859375 C 268.976562 226.859375 268.972656 226.859375 268.96875 226.859375 C 268.964844 226.859375 268.957031 226.859375 268.953125 226.859375 C 268.953125 226.859375 268.953125 226.859375 268.949219 226.859375 C 268.945312 226.859375 268.9375 226.859375 268.933594 226.859375 C 268.929688 226.859375 268.929688 226.859375 268.925781 226.859375 C 268.921875 226.859375 268.917969 226.859375 268.914062 226.859375 C 268.910156 226.859375 268.90625 226.859375 268.90625 226.859375 C 268.902344 226.859375 268.894531 226.859375 268.890625 226.859375 C 268.890625 226.859375 268.886719 226.859375 268.882812 226.859375 C 268.878906 226.859375 268.875 226.859375 268.871094 226.859375 C 268.867188 226.859375 268.863281 226.859375 268.863281 226.859375 C 268.855469 226.859375 268.855469 226.859375 268.851562 226.859375 C 268.847656 226.859375 268.84375 226.859375 268.839844 226.859375 C 268.835938 226.859375 268.832031 226.859375 268.828125 226.859375 C 268.824219 226.859375 268.824219 226.859375 268.820312 226.859375 C 268.816406 226.859375 268.8125 226.859375 268.804688 226.859375 C 268.804688 226.859375 268.800781 226.859375 268.800781 226.859375 C 268.792969 226.859375 268.789062 226.859375 268.785156 226.859375 C 268.78125 226.859375 268.78125 226.859375 268.777344 226.859375 C 268.769531 226.859375 268.761719 226.859375 268.753906 226.859375 " fill-opacity="1" fill-rule="nonzero"/><path fill="#a5b7b0" d="M 269.972656 199.609375 L 245.550781 193.511719 L 246.480469 189.808594 C 248.253906 186.480469 250.75 183.597656 253.765625 181.371094 C 259.128906 187.480469 264.523438 193.574219 269.972656 199.609375 " fill-opacity="1" fill-rule="nonzero"/><path fill="#a69592" d="M 255.726562 207.53125 L 243.691406 204.527344 C 243.582031 203.582031 243.527344 202.621094 243.527344 201.644531 C 243.527344 201.640625 243.527344 201.632812 243.527344 201.625 C 243.527344 201.621094 243.527344 201.621094 243.527344 201.617188 C 243.527344 201.613281 243.527344 201.605469 243.527344 201.601562 C 243.527344 201.601562 243.527344 201.597656 243.527344 201.59375 C 243.527344 201.589844 243.527344 201.582031 243.527344 201.578125 C 243.527344 201.578125 243.527344 201.570312 243.527344 201.570312 C 243.527344 201.566406 243.527344 201.558594 243.527344 201.554688 C 243.527344 201.550781 243.527344 201.550781 243.527344 201.550781 C 243.527344 201.539062 243.527344 201.53125 243.527344 201.527344 C 243.527344 201.515625 243.527344 201.511719 243.527344 201.5 C 243.527344 201.492188 243.527344 201.488281 243.527344 201.480469 C 243.527344 201.476562 243.527344 201.472656 243.527344 201.472656 C 243.527344 201.464844 243.527344 201.460938 243.527344 201.457031 C 243.527344 201.453125 243.527344 201.453125 243.527344 201.449219 C 243.527344 201.441406 243.527344 201.4375 243.527344 201.429688 C 243.527344 201.429688 243.527344 201.429688 243.527344 201.425781 C 243.527344 201.421875 243.527344 201.414062 243.527344 201.40625 C 243.527344 201.402344 243.527344 201.402344 243.527344 201.402344 C 243.527344 201.394531 243.527344 201.386719 243.527344 201.382812 C 243.527344 201.378906 243.527344 201.375 243.527344 201.375 C 243.527344 201.371094 243.527344 201.363281 243.53125 201.359375 C 243.53125 201.355469 243.53125 201.351562 243.53125 201.351562 C 243.53125 201.347656 243.53125 201.339844 243.53125 201.335938 C 243.53125 201.332031 243.53125 201.332031 243.53125 201.328125 C 243.53125 201.320312 243.53125 201.316406 243.53125 201.308594 C 243.53125 201.308594 243.53125 201.308594 243.53125 201.304688 C 243.53125 201.296875 243.53125 201.289062 243.53125 201.285156 L 243.53125 201.28125 C 243.53125 201.265625 243.53125 201.25 243.53125 201.234375 C 243.53125 201.234375 243.53125 201.230469 243.53125 201.230469 C 243.53125 201.222656 243.53125 201.21875 243.53125 201.210938 C 243.53125 201.210938 243.53125 201.207031 243.53125 201.207031 C 243.53125 201.199219 243.53125 201.195312 243.53125 201.1875 C 243.53125 201.1875 243.53125 201.183594 243.53125 201.183594 C 243.53125 201.175781 243.53125 201.167969 243.53125 201.160156 C 243.53125 201.144531 243.53125 201.128906 243.53125 201.113281 C 243.53125 201.113281 243.53125 201.109375 243.53125 201.109375 C 243.53125 201.105469 243.53125 201.097656 243.53125 201.089844 C 243.53125 201.089844 243.53125 201.089844 243.53125 201.085938 C 243.53125 201.078125 243.535156 201.070312 243.535156 201.066406 L 243.535156 201.0625 C 243.535156 201.039062 243.535156 201.015625 243.535156 200.992188 C 243.535156 200.992188 243.535156 200.992188 243.535156 200.988281 C 243.535156 200.980469 243.539062 200.976562 243.539062 200.96875 C 243.539062 200.964844 243.539062 200.96875 243.539062 200.964844 C 243.539062 200.960938 243.539062 200.949219 243.539062 200.941406 C 243.539062 200.886719 243.539062 200.828125 243.542969 200.773438 L 256.601562 204.03125 L 255.726562 207.53125 " fill-opacity="1" fill-rule="nonzero"/><path fill="#90b9d2" d="M 264.808594 217.160156 L 245.957031 212.457031 C 245.621094 211.75 245.316406 211.019531 245.042969 210.277344 L 265.269531 215.324219 L 264.808594 217.160156 " fill-opacity="1" fill-rule="nonzero"/><path fill="#90b9d2" d="M 263.1875 223.640625 L 252.574219 220.992188 C 251.613281 220.1875 250.707031 219.308594 249.875 218.371094 L 263.648438 221.804688 L 263.1875 223.640625 " fill-opacity="1" fill-rule="nonzero"/><path fill="#3f6895" d="M 268.753906 226.859375 C 254.824219 226.859375 243.527344 215.574219 243.527344 201.644531 C 243.527344 202.621094 243.582031 203.582031 243.691406 204.527344 C 243.917969 206.523438 244.378906 208.449219 245.042969 210.277344 C 245.316406 211.019531 245.621094 211.75 245.957031 212.457031 C 246.980469 214.613281 248.304688 216.601562 249.875 218.371094 C 250.707031 219.308594 251.613281 220.1875 252.574219 220.992188 C 256.957031 224.65625 262.597656 226.859375 268.753906 226.859375 M 268.777344 226.859375 C 268.78125 226.859375 268.78125 226.859375 268.785156 226.859375 C 268.78125 226.859375 268.78125 226.859375 268.777344 226.859375 M 268.800781 226.859375 C 268.800781 226.859375 268.804688 226.859375 268.804688 226.859375 C 268.804688 226.859375 268.800781 226.859375 268.800781 226.859375 M 268.820312 226.859375 C 268.824219 226.859375 268.824219 226.859375 268.828125 226.859375 C 268.824219 226.859375 268.824219 226.859375 268.820312 226.859375 M 268.839844 226.859375 C 268.84375 226.859375 268.847656 226.859375 268.851562 226.859375 C 268.847656 226.859375 268.84375 226.859375 268.839844 226.859375 M 268.863281 226.859375 C 268.863281 226.859375 268.867188 226.859375 268.871094 226.859375 C 268.867188 226.859375 268.863281 226.859375 268.863281 226.859375 M 268.882812 226.859375 C 268.886719 226.859375 268.890625 226.859375 268.890625 226.859375 C 268.890625 226.859375 268.886719 226.859375 268.882812 226.859375 M 268.90625 226.859375 C 268.90625 226.859375 268.910156 226.859375 268.914062 226.859375 C 268.910156 226.859375 268.90625 226.859375 268.90625 226.859375 M 268.925781 226.859375 C 268.929688 226.859375 268.929688 226.859375 268.933594 226.859375 C 268.929688 226.859375 268.929688 226.859375 268.925781 226.859375 M 268.949219 226.859375 C 268.953125 226.859375 268.953125 226.859375 268.953125 226.859375 C 268.953125 226.859375 268.953125 226.859375 268.949219 226.859375 M 268.96875 226.859375 C 268.972656 226.859375 268.976562 226.859375 268.976562 226.859375 C 268.976562 226.859375 268.972656 226.859375 268.96875 226.859375 M 268.992188 226.859375 C 268.992188 226.859375 268.996094 226.859375 268.996094 226.859375 C 268.996094 226.859375 268.992188 226.859375 268.992188 226.859375 M 269.015625 226.859375 C 269.015625 226.859375 269.015625 226.859375 269.019531 226.859375 C 269.015625 226.859375 269.015625 226.859375 269.015625 226.859375 M 269.035156 226.859375 C 269.035156 226.859375 269.039062 226.859375 269.039062 226.859375 C 269.039062 226.859375 269.035156 226.859375 269.035156 226.859375 M 269.167969 226.859375 L 269.171875 226.859375 L 269.167969 226.859375 M 269.1875 226.855469 C 269.191406 226.855469 269.191406 226.855469 269.191406 226.855469 C 269.191406 226.855469 269.191406 226.855469 269.1875 226.855469 " fill-opacity="1" fill-rule="nonzero"/><g clip-path="url(#f74a985d05)"><path fill="#255bb2" d="M 275.800781 285.933594 C 275.800781 288.882812 273.410156 290.296875 270.457031 290.296875 L 267.054688 290.296875 C 264.101562 290.296875 261.714844 288.882812 261.714844 285.933594 L 261.714844 241.824219 C 261.714844 238.875 264.101562 237.460938 267.054688 237.460938 L 270.457031 237.460938 C 273.410156 237.460938 275.800781 238.875 275.800781 241.824219 L 275.800781 285.933594 " fill-opacity="1" fill-rule="nonzero"/></g><g clip-path="url(#2dd4a198aa)"><path fill="#2d44a1" d="M 269.027344 237.460938 L 267.054688 237.460938 C 264.101562 237.460938 261.714844 238.875 261.714844 241.824219 L 261.714844 285.933594 C 261.714844 288.882812 264.101562 290.296875 267.054688 290.296875 L 269.027344 290.296875 L 269.027344 237.460938 " fill-opacity="1" fill-rule="nonzero"/></g><path fill="#ffffff" d="M 283.53125 188.199219 C 286.769531 191.75 288.738281 196.464844 288.738281 201.648438 C 288.738281 207.164062 286.503906 212.152344 282.886719 215.769531 C 279.265625 219.386719 274.277344 221.617188 268.753906 221.621094 L 268.753906 223.980469 C 281.097656 223.976562 291.101562 213.980469 291.101562 201.648438 C 291.101562 195.859375 288.894531 190.574219 285.277344 186.609375 L 283.53125 188.199219 " fill-opacity="1" fill-rule="nonzero"/><path fill="#ffffff" d="M 268.753906 181.675781 C 272.398438 181.675781 275.808594 182.648438 278.75 184.347656 L 279.933594 182.304688 C 276.648438 180.402344 272.824219 179.3125 268.753906 179.316406 L 268.753906 181.675781 " fill-opacity="1" fill-rule="nonzero"/></svg>